<?xml version="1.0" encoding="utf-8"?>
<!-- Generator: Adobe Illustrator 24.0.0, SVG Export Plug-In . SVG Version: 6.00 Build 0)  -->
<svg version="1.1" id="Layer_1" xmlns="http://www.w3.org/2000/svg" xmlns:xlink="http://www.w3.org/1999/xlink" x="0px" y="0px"
	 viewBox="0 0 750 480" style="enable-background:new 0 0 750 480;" xml:space="preserve">
<style type="text/css">
	.st0{fill-rule:evenodd;clip-rule:evenodd;fill:#549E7B;}
	.st1{opacity:0.3;fill:#FFFFFF;}
	.st2{fill-rule:evenodd;clip-rule:evenodd;fill:#71BF9D;}
	.st3{fill-rule:evenodd;clip-rule:evenodd;fill:#84D1AA;}
	.st4{fill:#6E6E6E;}
	.st5{fill:#B50404;}
	.st6{fill:#FFFFFF;}
	.st7{fill:#552F5E;}
	.st8{fill:#DD4026;}
	.st9{fill:#FFBE57;}
	.st10{fill:none;stroke:#FFFFFF;stroke-width:1.4595;stroke-miterlimit:10;}
	.st11{opacity:0.5;fill:#FFBE57;}
	.st12{fill:#E2E2E2;}
	.st13{fill:#FF8976;}
	.st14{fill:#71BF9D;}
	.st15{opacity:0.3;fill:#9D68AA;}
	.st16{fill:#FFDCAE;}
	.st17{fill:#F29353;}
	.st18{fill:#CC584E;}
	.st19{fill:#E57873;}
	.st20{fill:#3E2B13;}
	.st21{fill:#E4BCE8;}
	.st22{fill:#E06258;}
	.st23{clip-path:url(#SVGID_2_);fill:#7C4284;}
	.st24{fill:#F7B614;}
	.st25{fill:#3E2344;}
	.st26{clip-path:url(#SVGID_4_);fill:#7C4284;}
	.st27{fill:#BA2F1C;}
	.st28{fill:#7C4284;}
	.st29{fill:#A1ABAD;}
	.st30{fill:#EF7265;}
	.st31{fill-rule:evenodd;clip-rule:evenodd;fill:#FFB072;}
	.st32{fill:#E57E55;}
	.st33{fill:#FFB072;}
	.st34{fill:#FFA399;}
	.st35{fill:#FD6141;}
	.st36{fill:#D8462A;}
	.st37{opacity:0.5;fill:#E57E55;}
	.st38{clip-path:url(#SVGID_6_);fill:#1C3742;}
	.st39{clip-path:url(#SVGID_6_);fill:#EFEFEF;}
	.st40{fill:#19323A;}
	.st41{fill:#207089;}
	.st42{clip-path:url(#SVGID_8_);fill:#1C3742;}
	.st43{clip-path:url(#SVGID_8_);fill:#EFEFEF;}
	.st44{fill:#1C3742;}
	.st45{fill:none;stroke:#7C4284;stroke-width:0.9029;stroke-miterlimit:10;}
	.st46{fill:#BC6658;}
	.st47{fill:#1E1C1C;}
	.st48{fill:#C67154;}
	.st49{clip-path:url(#SVGID_10_);fill:#DD4026;}
	.st50{clip-path:url(#SVGID_12_);fill:#DD4026;}
	.st51{fill:none;stroke:#F7DFD8;stroke-width:0.4207;stroke-miterlimit:10;}
	.st52{fill:#549E7B;}
	.st53{fill:#8C8C8C;}
	.st54{fill:#F4B998;}
	.st55{clip-path:url(#SVGID_14_);fill:#1C3742;}
	.st56{clip-path:url(#SVGID_14_);fill:#207089;}
	.st57{clip-path:url(#SVGID_16_);fill:#1C3742;}
	.st58{clip-path:url(#SVGID_16_);fill:#207089;}
	.st59{fill:#3C8460;}
	.st60{opacity:0.3;fill:#549E7B;}
	.st61{fill:#764582;}
	.st62{fill:#84D1AA;}
	.st63{fill:#E57930;}
	.st64{opacity:0.5;fill:#A1ABAD;}
	.st65{fill:#2B545E;}
	.st66{clip-path:url(#SVGID_18_);fill:#2E1933;}
	.st67{clip-path:url(#SVGID_18_);fill:#4C2B54;}
	.st68{clip-path:url(#SVGID_20_);fill:#2E1933;}
	.st69{clip-path:url(#SVGID_20_);fill:#4C2B54;}
	.st70{fill:#2E1933;}
	.st71{fill:#EFE9DA;}
	.st72{opacity:0.5;fill:#2E1933;}
	.st73{fill:#4C2B54;}
	.st74{fill:#AAAAAA;}
	.st75{fill:#201D42;}
	.st76{fill:#666666;}
	.st77{fill-rule:evenodd;clip-rule:evenodd;fill:#B50404;}
	.st78{fill-rule:evenodd;clip-rule:evenodd;fill:#6E6E6E;}
</style>
<g>
	<g>
		<g>
			<path class="st0" d="M96.5,363.8c0,0-44.9-41.1-60.4-82.4C36.1,281.5,78.9,285.1,96.5,363.8z"/>
			<path class="st1" d="M80.2,336.6c-0.8-1.5-1.7-2.9-2.6-4.4c-0.9-1.4-1.7-2.9-2.6-4.3c-1.8-2.9-3.7-5.7-5.6-8.5
				c-3.8-5.6-7.8-11-12.1-16.3c-4.2-5.3-8.7-10.4-13.4-15.2c2.1,2.7,4.2,5.3,6.2,8c2.1,2.7,4.1,5.4,6.1,8.1
				c4,5.4,7.9,10.9,11.7,16.5c3.8,5.5,7.5,11.2,11,16.9l2.6,4.3l2.6,4.4c1.8,2.9,3.3,5.9,5,8.8C86.5,348.5,83.6,342.4,80.2,336.6z"
				/>
		</g>
		<g>
			<path class="st2" d="M97,360.8c0,0-18.1-48.1-13.9-85.1C83,275.7,113.8,294.8,97,360.8z"/>
			<path class="st1" d="M95.1,334.1c0-1.4-0.1-2.9-0.2-4.3c-0.1-1.4-0.2-2.9-0.3-4.3c-0.3-2.8-0.6-5.7-0.9-8.5
				c-0.8-5.7-1.7-11.3-2.9-16.9c-1.2-5.6-2.6-11.1-4.3-16.6c0.6,2.8,1.1,5.6,1.6,8.4c0.5,2.8,1,5.6,1.5,8.4
				c0.9,5.6,1.8,11.2,2.5,16.9c0.8,5.6,1.3,11.3,1.8,16.9l0.3,4.2l0.3,4.3c0.3,2.8,0.2,5.7,0.4,8.5
				C95.3,345.5,95.5,339.8,95.1,334.1z"/>
		</g>
		<g>
			<path class="st3" d="M90.4,369.9c0,0-37.3-19.6-49.4-32.3l-10.5,35.7c0,0-3.6-33.5,8.1-53.1c0,0,34.8,7.1,57,44.5L90.4,369.9z"/>
			<path class="st1" d="M76.8,351.8l-2.5-2.2c-3.4-2.9-6.9-5.8-10.5-8.4c-3.6-2.6-7.3-5.1-11.1-7.5c-3.8-2.4-7.7-4.6-11.7-6.6
				l-0.7-0.4l-0.4,0.7c-1.4,2.3-2.7,4.8-3.6,7.3c-0.9,2.5-1.8,5.1-2.3,7.8c-0.6,2.6-1,5.3-1.3,8c-0.3,2.7-0.4,5.4-0.4,8
				c0.4-5.3,1.4-10.6,2.8-15.7c0.7-2.6,1.6-5.1,2.6-7.5c0.9-2.2,2-4.3,3.3-6.3c3.7,2,7.3,4.1,10.8,6.3c3.8,2.3,7.5,4.8,11.1,7.3
				c3.7,2.5,7.2,5.2,10.7,7.9c3.5,2.7,6.9,5.6,10.2,8.6c-1.5-1.6-3-3.3-4.6-4.8L76.8,351.8z"/>
		</g>
	</g>
	<g>
		<g>
			<path class="st0" d="M671,394.1c0,0,44.9-41.1,60.4-82.4C731.3,311.7,688.6,315.3,671,394.1z"/>
			<path class="st1" d="M687.2,366.8c0.8-1.5,1.7-2.9,2.6-4.4c0.9-1.4,1.7-2.9,2.6-4.3c1.8-2.9,3.7-5.7,5.6-8.5
				c3.8-5.6,7.8-11,12.1-16.3c4.2-5.3,8.7-10.4,13.4-15.2c-2.1,2.7-4.2,5.3-6.2,8c-2.1,2.7-4.1,5.4-6.1,8.1
				c-4,5.4-7.9,10.9-11.7,16.5c-3.8,5.5-7.5,11.2-11,16.9l-2.6,4.3l-2.6,4.4c-1.8,2.9-3.3,5.9-5,8.8
				C680.9,378.8,683.9,372.6,687.2,366.8z"/>
		</g>
		<g>
			<path class="st2" d="M670.5,391.1c0,0,18.1-48.1,13.9-85.1C684.4,305.9,653.6,325,670.5,391.1z"/>
			<path class="st1" d="M672.3,364.3c0-1.4,0.1-2.9,0.2-4.3c0.1-1.4,0.2-2.9,0.3-4.3c0.3-2.8,0.6-5.7,0.9-8.5
				c0.8-5.7,1.7-11.3,2.9-16.9c1.2-5.6,2.6-11.1,4.3-16.6c-0.6,2.8-1.1,5.6-1.6,8.4c-0.5,2.8-1,5.6-1.5,8.4
				c-0.9,5.6-1.8,11.2-2.5,16.9c-0.8,5.6-1.3,11.3-1.8,16.9l-0.3,4.2l-0.3,4.3c-0.3,2.8-0.2,5.7-0.4,8.5
				C672.1,375.7,672,370,672.3,364.3z"/>
		</g>
		<g>
			<path class="st3" d="M677.1,400.1c0,0,37.3-19.6,49.4-32.3l10.5,35.7c0,0,3.6-33.5-8.1-53.1c0,0-34.8,7.1-57,44.5L677.1,400.1z"
				/>
			<path class="st1" d="M690.7,382l2.5-2.2c3.4-2.9,6.9-5.8,10.5-8.4c3.6-2.6,7.3-5.1,11.1-7.5c3.8-2.4,7.7-4.6,11.7-6.6l0.7-0.4
				l0.4,0.7c1.4,2.3,2.7,4.8,3.6,7.3c0.9,2.5,1.8,5.1,2.3,7.8c0.6,2.6,1,5.3,1.3,8c0.3,2.7,0.4,5.4,0.4,8
				c-0.4-5.3-1.4-10.6-2.8-15.7c-0.7-2.6-1.6-5.1-2.6-7.5c-0.9-2.2-2-4.3-3.3-6.3c-3.7,2-7.3,4.1-10.8,6.3
				c-3.8,2.3-7.5,4.8-11.1,7.3c-3.7,2.5-7.2,5.2-10.7,7.9c-3.5,2.7-6.9,5.6-10.2,8.6c1.5-1.6,3-3.3,4.6-4.8L690.7,382z"/>
		</g>
	</g>
	<g>
		<ellipse transform="matrix(0.7071 -0.7071 0.7071 0.7071 65.3762 406.2241)" class="st4" cx="523" cy="124.2" rx="37" ry="37"/>
		
			<ellipse transform="matrix(0.7071 -0.7071 0.7071 0.7071 65.3762 406.2241)" class="st5" cx="523" cy="124.2" rx="30.8" ry="30.8"/>
		<circle class="st6" cx="523" cy="124.2" r="29.4"/>
		
			<rect x="530.6" y="108.3" transform="matrix(0.4623 0.8867 -0.8867 0.4623 391.8336 -408.0137)" class="st4" width="3.4" height="21.5"/>
		
			<rect x="528.6" y="122.3" transform="matrix(0.8878 -0.4602 0.4602 0.8878 -3.3013 258.9113)" class="st4" width="1.6" height="27.9"/>
		<path class="st7" d="M525.4,124.2c0,1.3-1.1,2.3-2.3,2.3c-1.3,0-2.3-1.1-2.3-2.3c0-1.3,1.1-2.3,2.3-2.3
			C524.3,121.8,525.4,122.9,525.4,124.2z"/>
		<g>
			<g>
				<rect x="521.9" y="96.1" class="st8" width="2.3" height="4.9"/>
				<rect x="521.9" y="147.8" class="st8" width="2.3" height="4.9"/>
			</g>
			<g>
				
					<rect x="547.7" y="122" transform="matrix(-1.836970e-16 1 -1 -1.836970e-16 673.2892 -424.4487)" class="st8" width="2.3" height="4.9"/>
				
					<rect x="496" y="122" transform="matrix(-1.836970e-16 1 -1 -1.836970e-16 621.6392 -372.7987)" class="st8" width="2.3" height="4.9"/>
			</g>
		</g>
		<g>
			<g>
				
					<rect x="540.1" y="103.7" transform="matrix(0.7071 0.7071 -0.7071 0.7071 233.6104 -351.6671)" class="st8" width="2.3" height="4.9"/>
				
					<rect x="503.6" y="140.2" transform="matrix(0.7071 0.7071 -0.7071 0.7071 248.7384 -315.1451)" class="st8" width="2.3" height="4.9"/>
			</g>
			<g>
				
					<rect x="540.1" y="140.2" transform="matrix(-0.7071 0.7071 -0.7071 -0.7071 1024.9563 -139.1883)" class="st8" width="2.3" height="4.9"/>
				
					<rect x="503.6" y="103.7" transform="matrix(-0.7071 0.7071 -0.7071 -0.7071 936.7842 -175.7104)" class="st8" width="2.3" height="4.9"/>
			</g>
		</g>
	</g>
	<g>
		<g>
			<path class="st9" d="M708.1,430.2H20c0,0.1,0,0.1,0,0.2c-0.1,0.5-0.3,1.1-0.5,1.6c-0.4,0.7-0.8,0.9-1,0.4
				c-0.1-0.2-0.1-0.4-0.1-0.6c0-0.5,0.1-1,0.2-1.5h-2.4c1.3-6.2,3.2-12.8,5.7-19.6c25-68.1,112.4-67.9,131.2-115.3
				c18.8-47.4,41.1-83.1,77.5-82.3c36.4,0.8,92.2,86.8,140.9,78.8c48.7-8,83.6-68.6,157.2-58.4c31.5,4.4,75.3,85.5,114.8,93.9
				C674.5,333.7,713,386.8,708.1,430.2z"/>
			<path class="st10" d="M23.4,430.2c1.2-5.4,2.9-11,5-16.8c12.7-34.5,43-50.2,72.2-65.4c25.4-13.2,49.4-25.6,58.9-49.7
				c21.9-55.1,43.1-78.3,70.9-77.7l0.3,0c13.6,0.6,32.4,16.5,52.3,33.4c24.7,21,52.6,44.7,79.9,45.8c3.3,0.1,6.5-0.1,9.6-0.6
				c20.4-3.4,37.9-14.9,56.5-27.1c25.2-16.6,51.3-33.8,87.7-32.3c3.6,0.2,7.3,0.5,11.1,1c12.8,1.8,30.7,21.6,48.1,40.8
				c21.4,23.7,43.6,48.2,66.2,53c24,5.1,56.7,45.3,59.2,83.3c0.3,4.3,0.2,8.3-0.4,12.2"/>
			<path class="st11" d="M612,430.2H111.6c0.9-4.8,2.4-9.8,4.3-15c18.1-49.2,81.3-49.1,94.9-83.4c13.6-34.2,29.7-60.1,56-59.5
				c26.3,0.6,66.7,62.7,101.9,56.9c35.2-5.8,60.5-49.6,113.6-42.3c22.8,3.2,54.4,61.9,83,67.9C588,359.6,616.1,398.6,612,430.2z"/>
		</g>
		<g>
			<g>
				<g>
					<path class="st6" d="M20.3,428.7c0,0.5-0.1,1-0.2,1.5c0,0.1,0,0.1,0,0.2c-0.1,0.5-0.3,1.1-0.5,1.6c-0.4,0.7-0.8,0.9-1,0.4
						c-0.1-0.2-0.1-0.4-0.1-0.6c0-0.5,0.1-1,0.2-1.5c0-0.1,0-0.1,0-0.2c0.2-0.5,0.3-1.1,0.6-1.6c0.4-0.7,0.8-0.9,1-0.3
						C20.2,428.2,20.3,428.4,20.3,428.7z"/>
				</g>
				<g>
					<path class="st6" d="M20,425.4c0-0.6,0.2-1.1,0.3-1.7c0.2-0.5,0.3-1.1,0.7-1.6c0.4-0.7,0.9-0.8,1-0.3c0,0.2,0.1,0.4,0,0.6
						c-0.1,0.6-0.2,1.1-0.3,1.7c-0.2,0.5-0.3,1.1-0.6,1.6c-0.4,0.7-0.8,0.8-1,0.3C20,425.9,20,425.7,20,425.4z"/>
				</g>
				<g>
					<path class="st6" d="M21.9,419.3c0.6-2.2,1.4-4.4,2.3-6.5c0.9-2.1,1.8-4.2,3-6.2c0.4-0.7,0.9-1,1.1-0.8
						c0.2,0.2,0.1,0.7-0.1,1.3c-0.9,2.1-1.8,4.2-2.6,6.3c-0.9,2.1-1.7,4.2-2.6,6.3c-0.3,0.7-0.7,1.1-1,0.9
						C21.8,420.4,21.8,419.8,21.9,419.3z"/>
				</g>
				<g>
					<path class="st6" d="M29.8,401.3c0-0.4,0.2-0.7,0.4-1c0.2-0.3,0.3-0.6,0.6-0.8c0.6-0.5,1.1-0.3,1,0.5l0,0
						c-0.1,0.4-0.2,0.7-0.4,1c-0.2,0.3-0.3,0.6-0.6,0.8C30.2,402.4,29.8,402.2,29.8,401.3L29.8,401.3z"/>
				</g>
				<g>
					<path class="st6" d="M33.3,395.3c0.1-0.4,0.2-0.7,0.4-1c0.2-0.3,0.4-0.6,0.7-0.8c0.7-0.5,1.1-0.2,1,0.6l0,0
						c-0.1,0.4-0.3,0.6-0.4,0.9c-0.2,0.3-0.4,0.6-0.7,0.8C33.6,396.4,33.1,396.2,33.3,395.3L33.3,395.3z"/>
				</g>
			</g>
		</g>
	</g>
	<g>
		<g>
			<rect x="217.2" y="110.7" class="st4" width="242.4" height="158.2"/>
			<rect x="222.9" y="132.7" class="st6" width="231.1" height="129.3"/>
			<rect x="217.2" y="110.7" class="st5" width="242.4" height="16.1"/>
			<path class="st12" d="M454,237.9h-35.9v-25.3H454v-1.4h-35.9v-25.3H454v-1.4h-35.9v-25.3H454v-1.4h-35.9v-25.2h-1.4v25.2h-38.2
				v-25.2h-1.4v25.2h-38.2v-25.2h-1.4v25.2h-38.2v-25.2h-1.4v25.2h-38.2v-25.2h-1.4v25.2h-35.8v1.4h35.8v25.3h-35.8v1.4h35.8v25.3
				h-35.8v1.4h35.8v25.3h-35.8v1.4h35.8v22.5h1.4v-22.5h38.2v22.5h1.4v-22.5h38.2v22.5h1.4v-22.5h38.2v22.5h1.4v-22.5h38.2v22.5h1.4
				v-22.5H454V237.9z M337.7,211.2h-38.2v-25.3h38.2V211.2z M339.1,185.9h38.2v25.3h-38.2V185.9z M378.6,211.2v-25.3h38.2v25.3
				H378.6z M378.6,184.6v-25.3h38.2v25.3H378.6z M377.3,184.6h-38.2v-25.3h38.2V184.6z M337.7,184.6h-38.2v-25.3h38.2V184.6z
				 M298.2,184.6h-38.2v-25.3h38.2V184.6z M298.2,185.9v25.3h-38.2v-25.3H298.2z M298.2,212.6v25.3h-38.2v-25.3H298.2z M299.6,212.6
				h38.2v25.3h-38.2V212.6z M339.1,212.6h38.2v25.3h-38.2V212.6z M378.6,212.6h38.2v25.3h-38.2V212.6z"/>
		</g>
		<rect x="301.7" y="160.5" transform="matrix(0.9871 -0.16 0.16 0.9871 -23.237 51.4774)" class="st9" width="12.6" height="19"/>
		
			<rect x="280.6" y="187.8" transform="matrix(0.9901 0.1405 -0.1405 0.9901 30.5575 -38.3373)" class="st13" width="12.6" height="19"/>
		
			<rect x="283.6" y="188.6" transform="matrix(0.9976 6.990242e-02 -6.990242e-02 0.9976 14.5593 -19.7774)" class="st14" width="12.6" height="19"/>
	</g>
	<g>
		<path class="st15" d="M281.3,434l-16.1,15.9c0,0-4.5,5.3,7.8,5.3c12.4,0,395.1,0,395.1,0s7.4-0.4,2.5-7.8
			C665.6,440.1,653,434,653,434H281.3z"/>
		<g>
			<path class="st16" d="M278.3,321.6c0,0-10.3,94-13.1,128.3c-0.4,4.6,7.6,5.8,8.3,1.3c4.8-29.4,20.4-129.6,20.4-129.6H278.3z"/>
			<path class="st17" d="M292.8,321.6c0,0-9,82.3-11.5,112.4c-0.3,4,6.7,5.1,7.3,1.1c4.2-25.8,17.8-113.5,17.8-113.5H292.8z"/>
			<path class="st17" d="M641.5,321.6c0,0,9,82.3,11.5,112.4c0.3,4-6.7,5.1-7.3,1.1c-4.2-25.8-17.8-113.5-17.8-113.5H641.5z"/>
			<path class="st16" d="M657.3,321.6c0,0,10.3,94,13.1,128.3c0.4,4.6-7.6,5.8-8.3,1.3c-4.8-29.4-20.4-129.6-20.4-129.6H657.3z"/>
			<path class="st18" d="M655.8,326.8H281.4c-6.8,0-12.2-5.5-12.2-12.2V311H668v3.5C668,321.3,662.5,326.8,655.8,326.8z"/>
			<g>
				<rect x="248.4" y="309.4" class="st17" width="440.3" height="6.6"/>
				<polygon class="st16" points="269.5,297.4 248.4,309.4 688.7,309.4 669.3,297.4 				"/>
			</g>
			<g>
				<g>
					<g>
						<path class="st18" d="M663.6,284.7l-0.3,5.3l-0.2,2.5l-0.5,7.8c-0.3,3.5-27.3,3.8-27.6,0.3l-0.6-7.8l-0.2-2.5l-0.5-5.6H663.6z
							"/>
						<ellipse class="st19" cx="648.6" cy="284.7" rx="15" ry="1.8"/>
						<path class="st20" d="M660.2,284.7c0,0.6-5.2,1.1-11.5,1.1c-6.4,0-11.5-0.5-11.5-1.1s5.2-1.1,11.5-1.1
							C655,283.6,660.2,284.1,660.2,284.7z"/>
						<g>
							<path class="st21" d="M663.3,290l-0.2,2.5c-2.7,0.9-7.5,2-14.9,2c-7.1,0-11.5-0.9-13.9-1.7l-0.2-2.5
								c1.8,0.7,6.1,1.9,14.1,1.9C656.3,292.2,661.1,290.8,663.3,290z"/>
						</g>
					</g>
				</g>
				<path class="st14" d="M644.9,285.8c0,0-10.6-24.2,3.7-24.2c14.3,0,3.8,24.1,3.8,24.1C652.4,285.8,647.6,285.9,644.9,285.8z"/>
			</g>
		</g>
	</g>
	<g>
		<path class="st8" d="M313.8,144.9c3.5-10.6,9.7-10.1,9.7-10.1s2.9-9.2,19.6-3.6c7.8,2,17.8,13.6,11.2,33.7
			c-2.2,6.6,8,11.9,6.2,28.2c-1.6,14.5-51.4,13.5-53.9,0.3c-2.9-15.2,10.4-17.3,9.4-25.1C314.9,160.2,311.7,151.3,313.8,144.9z"/>
		<path class="st22" d="M356.6,186.6c19.1,13.4,32.2,45.4,28.1,50.6c-4.1,5.2-12.1,0.3-16.6-4.6c-6.4-7-21.1-27.7-22.8-31.6
			C341.2,191.4,353.3,184.3,356.6,186.6z"/>
		<g>
			<g>
				<g>
					<defs>
						<path id="SVGID_1_" d="M348.8,432.6c0,0-3.2,3.7-3.6,4.7c-0.5,1-1.8,7.9-1.8,7.9c0.6,0.9,2.5,2,4,2l2.4-4.2
							c0,0,2.5,6.4,4.3,8.3c2.2,2.3,13.2,3.8,14.7,2.7c0,0,1.4-4.2-2.3-5.8c-6.7-3-8.1-11.2-8.1-11.2
							C358.6,432.1,352.8,429.2,348.8,432.6z"/>
					</defs>
					<use xlink:href="#SVGID_1_"  style="overflow:visible;fill:#3E2344;"/>
					<clipPath id="SVGID_2_">
						<use xlink:href="#SVGID_1_"  style="overflow:visible;"/>
					</clipPath>
					<path class="st23" d="M369.9,453.3c-0.2-0.1-13.8,0.1-16-3.6c-1.7-2.9-3.3-8-4.1-8.5c-0.8-0.5-4.8-4-4.8-4l-3.9,10.1l22.6,13.9
						L369.9,453.3z"/>
				</g>
				<path class="st24" d="M362.2,445.4l-1.8,0.7c0,0-1.6-1.6-1.7-3.2l1.7-0.9c0.3-0.2,0.7,0,0.8,0.3l1.2,2.3
					C362.7,444.8,362.6,445.3,362.2,445.4z"/>
			</g>
			<path class="st25" d="M379.7,352.9c0.1-13.4-9.8-66.3-18.7-96.9c-4.1-14-18-7.9-24.1,3c-13.9,24.6,21,90,19.5,98
				c-7.5,40.2-7.6,75.6-7.6,75.6c0.1,3.2,9.8,9.4,9.9,3.4C358.7,436,379.7,363.8,379.7,352.9z"/>
		</g>
		<g>
			<g>
				<g>
					<defs>
						<path id="SVGID_3_" d="M323.3,437c0,0-2.3,4.3-2.6,5.4c-0.3,1.1-0.1,8.2-0.1,8.2c0.8,0.7,2.9,1.5,4.4,1.1l1.4-4.6
							c0,0,3.8,5.7,6,7.2c2.7,1.8,13.7,0.9,14.9-0.4c0,0,0.5-4.4-3.4-5.2c-7.2-1.5-10.3-9.2-10.3-9.2
							C332.9,434.4,326.5,432.9,323.3,437z"/>
					</defs>
					<use xlink:href="#SVGID_3_"  style="overflow:visible;fill:#3E2344;"/>
					<clipPath id="SVGID_4_">
						<use xlink:href="#SVGID_3_"  style="overflow:visible;"/>
					</clipPath>
					<path class="st26" d="M348.4,452.8c-0.2,0-13.4,3-16.3-0.1c-2.3-2.5-4.9-7.1-5.8-7.4c-0.9-0.3-5.5-2.9-5.5-2.9l-1.7,10.7
						l25,8.8L348.4,452.8z"/>
				</g>
				<path class="st24" d="M339.2,446.7l-1.6,1c0,0-1.9-1.2-2.3-2.8l1.5-1.2c0.3-0.2,0.7-0.2,0.9,0.1l1.7,2
					C339.6,446,339.5,446.5,339.2,446.7z"/>
			</g>
			<path class="st25" d="M338.6,301.7l-0.8-34.8c-5-11.4-22.1-14.9-27-1.5c-9.1,25.1,8,116.8,12.5,172.7c0.8,3.9,10.3,4.7,10,0
				C333.4,438.1,337.9,317.5,338.6,301.7z"/>
		</g>
		<g>
			<path class="st8" d="M313.9,256.9c0,0-6.5,6.4-8.5,20.7c-2,14.3-2.6,48.7-2.6,48.7s39.4,14.5,74.9-1.4c0,0-9.2-61.2-18.6-69.4
				S323,245.3,313.9,256.9z"/>
			<path class="st27" d="M363.6,266.4c-0.6,2.8-11.2,9.1-26.5,8.6s-27.3-5-26.6-9c1.5-9.4,11.4-45,26.6-44.5
				C352.4,222,365.3,258.8,363.6,266.4z"/>
		</g>
		<path class="st13" d="M305.3,193.1c4.7-9.9,27.9-16.8,29.1-17.4c0,0,22.5,8.2,25.3,14.1c0.6,1.2-2.6,5.2-3,10c-0.2,2,2.4,9,2,11.4
			c-1.1,7.9-4.1,20-3.1,22.7c1.4,3.8,7.3,23.5,9,29.1c0.3,0.9-0.1,1.9-1,2.3c-23.5,11.1-42.7,5.9-54.3-0.5c-0.8-0.5-1.4-1.2-1.2-2.1
			c1.4-5.5,7.8-21.8,9.6-26.8C320.2,229.2,301.6,200.7,305.3,193.1z"/>
		<path class="st22" d="M318,234.2c0,0,4.6,17.8,12.2,18.2c7.6,0.4,27.3-13.8,27.3-13.8L318,234.2z"/>
		<g>
			<g>
				<path class="st28" d="M337.8,203.5c-0.1,0-0.2,0-0.3-0.1c-10.2-10-15.8-17.8-16.8-22.6c0-0.2,0.8-0.5,0.9-0.3
					c0.9,4.5,6.5,12.4,16.3,22.1l2.8-0.2c5.2-10.7,5.4-19.7,2.6-23.3c-0.1-0.2,0.9-0.1,1.1,0.1c3,3.9,2.4,12.7-3.1,23.8
					c-0.1,0.1-0.2,0.2-0.3,0.2L337.8,203.5C337.8,203.5,337.8,203.5,337.8,203.5z"/>
			</g>
			<g>
				<g>
					<path class="st6" d="M351.5,219.1l-21.7,1.5c-0.5,0-0.9-0.3-1-0.9l-0.9-13.2c0-0.5,0.3-0.9,0.9-1l21.7-1.5c0.5,0,0.9,0.3,1,0.9
						l0.9,13.2C352.4,218.7,352,219.1,351.5,219.1z"/>
					<path class="st8" d="M336.4,217.7l-5.5,0.4c-0.4,0-0.8-0.3-0.8-0.7l-0.5-7.4c0-0.4,0.3-0.8,0.7-0.8l5.5-0.4
						c0.4,0,0.8,0.3,0.8,0.7l0.5,7.4C337.1,217.3,336.8,217.6,336.4,217.7z"/>
				</g>
				
					<rect x="336.7" y="205.4" transform="matrix(0.9975 -7.055692e-02 7.055692e-02 0.9975 -13.6817 24.4801)" class="st25" width="6.1" height="0.9"/>
				<path class="st28" d="M340.8,205.8l-2.4,0.2c-0.2,0-0.4-0.1-0.4-0.4l-0.2-3.2c0-0.2,0.1-0.4,0.4-0.4l2.4-0.2
					c0.2,0,0.4,0.1,0.4,0.4l0.2,3.2C341.2,205.6,341,205.8,340.8,205.8z"/>
				<g>
					
						<rect x="339.1" y="208.2" transform="matrix(0.9975 -7.053988e-02 7.053988e-02 0.9975 -13.8654 24.8169)" class="st29" width="10.8" height="1"/>
					
						<rect x="339.2" y="210.3" transform="matrix(0.9975 -7.055168e-02 7.055168e-02 0.9975 -14.0171 24.837)" class="st29" width="10.8" height="1"/>
					
						<rect x="339.4" y="212.5" transform="matrix(0.9975 -7.053988e-02 7.053988e-02 0.9975 -14.1643 24.8487)" class="st29" width="10.8" height="1"/>
					
						<rect x="339.6" y="216" transform="matrix(0.9975 -7.055090e-02 7.055090e-02 0.9975 -14.4175 24.8793)" class="st29" width="10.8" height="1"/>
				</g>
			</g>
		</g>
		<path class="st30" d="M331.1,216.3c14-0.3,39.4,1.8,49.9,7.4c2.5,1.3,6.8,5.8,5.2,11.9c-1.6,6.1-10.5,4.2-10.5,4.2
			s-33.5-6.3-42-9.3C324.2,227.2,324.1,216.4,331.1,216.3z"/>
		<g>
			<path class="st31" d="M346.1,159.5c-1.6-1.2-2-5-0.8-6.9c0,0,0.9-1.7,2.9-0.9c1.5,0.6,1.9,2.5,1.8,4.3
				C349.7,158.3,347.8,160.8,346.1,159.5z"/>
			<path class="st32" d="M346.6,158.6l0.4-2l-1.2-0.3c0,0,0.2-3.7,2.3-2.7C349.7,154.4,348.7,159.1,346.6,158.6z"/>
		</g>
		<g>
			<path class="st33" d="M376.3,229c1.6-0.2,4.5-1.4,6.1-2.7c1.6-1.3,3.5,3.3,3.5,3.3s1.6-3.5-0.5-6.4c-0.4-0.6,0.1-1.7-0.6-2.9
				c-0.7-1.2-1-0.6-1.5-1.5s-0.3-1.3-0.6-2.2c-0.4-0.9-1-0.7-1.6-1.3s-0.8-1.5-1.5-1.8c-1.4-0.6-2.8,0.2-3.5,0.5
				c-2.2,1-5.4,3.7-6.5,6.1C368.5,222.4,366.8,230.1,376.3,229z"/>
			<g>
				<path class="st34" d="M304,202.1c-1.3-13.9,9.9-21.2,17.3-10.8c5.4,7.7,10.9,35.1,14.4,36.5c2.8,1.2,33.8-8.3,33.8-8.3
					c4.9,0.1,7.3,8.7,5.6,11.7c-20.8,9.1-38.6,19.8-46.9,15.9C318.1,242.4,305.2,215.8,304,202.1z"/>
			</g>
		</g>
		<g>
			<path class="st33" d="M328.5,161c0,0-0.1,6.3-1.6,11.4c-1.5,5-2.8,6.1-5,8.3c-2,2.1,15.2,10.7,15.2,10.7s1.9,4.8,2.8,5l0.5-5.4
				c0,0,6.3-6.2,3.7-9.5c-3.8-4.9-5.4-3.7-4.6-10.6c0.7-6.1,1.1-9.4,1.1-9.4L328.5,161z"/>
			<g>
				<g>
					<g>
						<g>
							<path class="st31" d="M327.2,161.2c0,0,3.6,12.4,15.4,9.7c5.9-1.4,7.1-13.3,4.3-16.9c0,0,1-5.4-1.7-11.3
								c-2.2-4.8-12.3-6.1-20.1-2.3c0,0-2,2.6,0.4,12.4c0,0-1.8-1.6-4,0.1c-1.7,1.3-1.5,3.6-0.5,5.7
								C322.2,161.2,325.3,163.1,327.2,161.2z"/>
							<path class="st32" d="M326.2,160.4l-1.3-2.2l1.4-0.9c0,0-1.7-4.3-3.9-2.3C320.7,156.7,323.8,161.7,326.2,160.4z"/>
						</g>
						<g>
							<g>
								<path class="st35" d="M343.4,162.8c0,0-1.1-1.9-7.3-0.3C337.3,165.7,343.4,166.4,343.4,162.8z"/>
								<g>
									<path class="st32" d="M343.4,162.8c0,0-3.8,0.6-7.3-0.3"/>
									<path class="st32" d="M343.4,162.8c-1.2,0.3-2.4,0.4-3.7,0.4c-1.2-0.1-2.5-0.2-3.6-0.7c0.6,0.1,1.2,0.1,1.8,0.2
										c0.6,0,1.2,0.1,1.8,0.1C341,162.8,342.2,162.8,343.4,162.8z"/>
								</g>
							</g>
							<g>
								<path class="st25" d="M345.7,154.1c0,0.6-0.7,0.7-1.6,0.8c-0.9,0.1-1.7,0-1.7-0.6c0-0.6,0.7-1.1,1.6-1.1
									C344.9,153.2,345.7,153.6,345.7,154.1z"/>
								<path class="st36" d="M347.2,151.5c0,0.1-2.4-1.3-2.9-1.4c-0.7,0-2.6,1.2-2.8,1c-0.3-0.3-0.6-0.9-0.6-0.9s2.9-1,3.5-0.9
									C345.1,149.4,346.9,150.8,347.2,151.5z"/>
							</g>
							<g>
								<path class="st25" d="M337.3,154.7c0,0.6-0.7,0.7-1.6,0.8c-0.9,0.1-1.7,0-1.7-0.6c0-0.6,0.7-1.1,1.6-1.1
									C336.5,153.7,337.3,154.1,337.3,154.7z"/>
								<path class="st36" d="M331.4,151.9c0,0.1,2.6-1.5,3.4-1.4c0.7,0.1,3.2,0.9,3.5,0.6c0.3-0.3,0.5-0.9,0.5-0.9
									s-3.5-0.6-4.3-0.5C333.7,149.9,331.7,151.2,331.4,151.9z"/>
							</g>
							<g>
								<path class="st37" d="M341.8,159.7c0,0-2.1,0.2-2.1-0.3c0-0.6,4.2-1.9,4.5-1.5C344.5,158.2,342.7,159.3,341.8,159.7z"/>
								<path class="st32" d="M340.8,150.9c0,0-0.2,2.7,0.2,3.6c0.5,0.9,2.7,2.7,2.8,3.2s-1.9,1.9-2.1,2c-0.2,0.1,3.1-0.9,2.8-1.9
									c-0.3-1-3.1-3.2-3.3-3.7C341.2,153.5,340.8,150.9,340.8,150.9z"/>
							</g>
						</g>
					</g>
				</g>
				<path class="st36" d="M345.5,139c0.9,0.8,6,3.5-0.1,4.3c-4.6,0.7-14.1-1.7-17-2.5c0.7,1.5,1,5.4,0.7,6.7c-0.5,2.4-1.5,8-1.5,8
					s-1.2-1.7-2.1-2.6c-0.9-0.9-3.9-1.5-5.2,2.1c0,0-2.9-5.2-3-8.8C317.2,136.2,333.7,128.9,345.5,139z"/>
			</g>
		</g>
		<path class="st33" d="M317.1,222.8c1-2.1,2.9-4.1,6.9-5.7c1.5-0.6,2.5-0.7,3.3-0.6c0.6,0,1,0,1,0s8.6-0.1,9.7,3.4
			c1.1,3.5-0.1,8-0.1,8s-4.2,0.6-5.7,0c-1.3,0.7-2.8,1.8-4.2,3.7c-0.5,0.7-2,0.5-1.8-0.4c0.3-1.5,1.1-3.2,2.9-4.9
			c-1.6,0.5-3.7,1.3-5.7,3.1c-0.8,0.7-2.4,0.1-2-0.8c0.8-1.8,2.6-3.7,6.1-5.4c0,0,0,0,0,0c-1.7,0.5-4.1,1.3-6.4,3.2
			c-0.8,0.6-2.4,0.1-2-0.7c0.6-1.3,1.8-2.7,3.8-4c-1.2,0.5-2.5,1.2-3.8,2.2C318.3,224.4,316.7,223.7,317.1,222.8z"/>
	</g>
	<g>
		<g>
			<path class="st33" d="M405.8,315.6c0.1-1.1,0.1-5.2-0.3-6.7c-1.5-5.2-7.8-7.2-10.5-5.4c-1.7,1.1-5.7,11.5-4.1,17.4
				c0.1,0.4,0.3,0.6,0.6,0.7c0,1,0,1.8,0.1,2.1c0.2,0.8,1,0.9,1.4,0.5c0.1,0.6,0.2,1.1,0.3,1.4c0.3,1,1.3,1.1,1.5,0.2
				c0.4-2,0.5-3.3,0.9-4.6c0.3-0.9,1.1-2.9,1.1-2.9c-0.2,0.8-0.5,1.7-0.7,2.6c-0.5,2.2-0.1,4.6,0.1,5.3c0.3,1,1.5,0.9,1.6,0
				c0.3-2,0.4-3.3,0.8-4.7c0.4-1.3,1.5-5.1,2.9-6.6c0.1,0.3,0.3,0.6,0.4,1c0.2,0.8,0,1.6,0.1,3.7c0.1,1.4,1.7,3.1,2.4,1.1
				C404.7,319.7,405.7,316.7,405.8,315.6z"/>
			<path class="st27" d="M406.3,254.9c2.7-13.5-2.5-39.1,3-50.1c5.8-11.8,24.9-4.4,24.4,5.1c-0.8,16.6-4.1,37.9-6.6,49.4
				c-3.5,15.8-20.6,51-20.6,51c-4.4-1.5-9.2-3.8-12.5-6.5C394,304,403.5,268.7,406.3,254.9z"/>
		</g>
		<g>
			<g>
				<defs>
					<path id="SVGID_5_" d="M419.8,431.8l-0.8,15.3c0,0,0.5,3.2,0.5,4.3c0,1.1-0.6,4.3-0.6,4.3c-1.4,1-5.6,1.3-7.8,0.6l-0.4-0.4
						c0,0-0.4,0.2-3.5,0.9c-3.1,0.7-12.3,0.8-13.7-0.3c0,0-1.1-4.6,2.7-5.5c9.6-2.3,11-4.8,11.7-7.8c0.9-3.7,1.9-12.9,1.9-12.9
						L419.8,431.8z"/>
				</defs>
				<use xlink:href="#SVGID_5_"  style="overflow:visible;fill:#FFB072;"/>
				<clipPath id="SVGID_6_">
					<use xlink:href="#SVGID_5_"  style="overflow:visible;"/>
				</clipPath>
				<path class="st38" d="M405.5,446.9c0,0,2.6-0.3,4,1.2c1.3,1.3,2.4,2.5,4.4,2.1c5.2-1,5-5.1,7.2-3.2l-0.1,10.6l-28.9,1.1l0-8
					L405.5,446.9z"/>
				<path class="st39" d="M392.9,455.4c0,0,0.4,1.4,9.5,1s9.9-2.4,17-2.2l-0.4,2.5l-26.6,2.2L392.9,455.4z"/>
			</g>
			<path class="st40" d="M415.8,281.9c3.1-15.1,34.1-15.2,31.1,0c-10.4,52.4-14.5,118.4-25.7,152.4c-5,1.8-9.9-0.2-12.5-1.8
				C408.8,432.5,405.8,331.4,415.8,281.9z"/>
			<path class="st41" d="M422.3,435.1c-5.2,1.8-11.9-0.2-14.6-1.8c-0.1,0-0.1-0.1-0.1-0.2c0-0.3,0-1.4,0.1-4.6
				c0-0.2,0.2-0.3,0.3-0.2c4.8,2,10.3,3.4,15.2,1.6c0.2-0.1,0.3,0.1,0.3,0.3c-0.6,2.6-0.9,4.3-1,4.8
				C422.4,435,422.3,435.1,422.3,435.1z"/>
		</g>
		<g>
			<g>
				<defs>
					<path id="SVGID_7_" d="M447.4,431l-0.8,15.3c0,0-0.9,3.2-1,4.2c-0.1,1.1,0.1,4.3,0.1,4.3c1.2,1.1,5.5,1.9,7.7,1.5l0.4-0.3
						c0,0,0.4,0.3,3.3,1.3c3,1,12.1,2.2,13.6,1.2c0,0,1.6-4.4-2.1-5.8c-9.3-3.3-10.4-6-10.8-9c-0.5-3.8-0.5-13-0.5-13L447.4,431z"/>
				</defs>
				<use xlink:href="#SVGID_7_"  style="overflow:visible;fill:#FFB072;"/>
				<clipPath id="SVGID_8_">
					<use xlink:href="#SVGID_7_"  style="overflow:visible;"/>
				</clipPath>
				<path class="st42" d="M460,447.6c0,0-2.5-0.5-4.1,0.7c-1.5,1.2-2.6,2.2-4.6,1.6c-5.1-1.6-4.4-5.6-6.8-4l-1.1,10.5l28.7,4.3
					l0.9-8L460,447.6z"/>
				<path class="st43" d="M471.5,457.4c0,0-0.5,1.3-9.5-0.1c-9-1.4-9.6-3.5-16.7-4.1l0.1,2.5l26.2,5.1L471.5,457.4z"/>
			</g>
			<path class="st44" d="M440.7,283.1c0.6-15.5,27.9-21.4,29.5-6c7,66.6-8.1,115.7-10.5,157.3c-6.5,2.6-10.9,1.7-14.4,0.2
				C445.3,434.5,439.8,306.4,440.7,283.1z"/>
			<path class="st41" d="M460.8,430.1c-0.4,2.6-0.6,3.8-0.7,4.2c0,0.1-0.1,0.1-0.2,0.2c-6.8,2.6-11.3,1.7-15,0.2
				c-0.1,0-0.1-0.1-0.1-0.2c0-0.4,0-1.8-0.1-3.9c0-0.2,0.1-0.3,0.3-0.2c5.5,1.3,10.5,1.1,15.4-0.5
				C460.7,429.8,460.8,429.9,460.8,430.1z"/>
		</g>
		<path class="st44" d="M415.9,286c0.3,8.1,13,14.1,28.3,13.5c15.3-0.6,26.8-7.6,26.5-15.7c-1-26.1-14-56.5-29.3-55.9
			C426.1,228.5,414.9,259.5,415.9,286z"/>
		<path class="st8" d="M417.8,257.4c1.7-16.8-10.2-48.3-8.5-52.5c2.6-6.3,32.8-22.9,32.8-22.9c1.3,0.6,31.4,13,37.4,22.6
			c2.5,4-12.3,43.6-11.3,58.5c0.5,7.3,3.2,14.6,3.4,21.6c0.3,8.1-57.2,8.8-57.5,0.7C413.7,276.1,416.8,266.6,417.8,257.4z"/>
		<path class="st27" d="M479.5,204.7c0,0-0.1-0.1-0.1-0.1c-23.6,19.7-25.6,54.9-7.9,78.6c-0.6-6.5-2.9-13.2-3.3-20
			C467.2,248.2,482,208.7,479.5,204.7z"/>
		<g>
			<polyline class="st45" points="429.9,197.9 437.5,217.8 440.9,217.8 452.9,197.4 			"/>
			<g>
				<g>
					<path class="st6" d="M451.2,236.2h-23.7c-0.5,0-0.9-0.4-0.9-0.9v-14.5c0-0.5,0.4-0.9,0.9-0.9h23.7c0.5,0,0.9,0.4,0.9,0.9v14.5
						C452.1,235.8,451.7,236.2,451.2,236.2z"/>
					<path class="st8" d="M434.9,233.4h-6.1c-0.4,0-0.7-0.3-0.7-0.7v-8.1c0-0.4,0.3-0.7,0.7-0.7h6.1c0.4,0,0.7,0.3,0.7,0.7v8.1
						C435.6,233.1,435.3,233.4,434.9,233.4z"/>
				</g>
				<rect x="436" y="220.5" class="st25" width="6.6" height="1"/>
				<path class="st28" d="M440.6,221h-2.7c-0.2,0-0.4-0.2-0.4-0.4v-3.5c0-0.2,0.2-0.4,0.4-0.4h2.7c0.2,0,0.4,0.2,0.4,0.4v3.5
					C440.9,220.8,440.8,221,440.6,221z"/>
				<g>
					<rect x="438.4" y="223.8" class="st29" width="11.7" height="1.1"/>
					<rect x="438.4" y="226.1" class="st29" width="11.7" height="1.1"/>
					<rect x="438.4" y="228.4" class="st29" width="11.7" height="1.1"/>
					<rect x="438.4" y="232.3" class="st29" width="11.7" height="1.1"/>
				</g>
			</g>
		</g>
		<path class="st33" d="M425.9,158.7c0.4,9.8,5.7,12.7,14.9,12.3c11.7-0.5,16.4-5.7,16-15.5c-0.4-9.8-8.1-15.4-17.2-15.1
			C430.4,140.8,425.4,144.8,425.9,158.7z"/>
		<g>
			<path class="st33" d="M429.9,160.5c-0.6-1.1-2.8-3.7-4.9-2.1c-2.1,1.6-1,6.2,1.1,8C428.2,168.2,434,167.4,429.9,160.5z"/>
			<path class="st32" d="M427.5,163.8c0.3-0.6,1.2,0.6,1.6-0.7c0.2-0.5-0.4-1.5-0.7-2c-0.4-0.7-1.9-2.5-3.1-1.4
				c-1.2,1.1-0.4,4.4,1,5.5c0.8,0.6,1.6,0.5,1.4,0.2C427.5,164.8,427.3,164.1,427.5,163.8z"/>
			<path class="st46" d="M426.7,161.9c-0.4,1.2,0.1,2.3,0.9,3.1c-0.2-0.4-0.2-0.9-0.1-1.1c0.3-0.6,1.2,0.6,1.6-0.7
				c0.2-0.5-0.4-1.5-0.7-2c0,0,0,0,0,0C427.6,160.8,426.8,161.4,426.7,161.9z"/>
		</g>
		<path class="st8" d="M424.6,147.4c0,0-1.4,8.3,2.1,14.5C430.1,168.1,432.4,144.2,424.6,147.4z"/>
		<path class="st33" d="M448.5,167.7c0,0,0.5,15.2,2.8,18.1c8.4,10.2-0.4,19.1-7.7,19c-9.8-0.2-13.2-7.5-7.6-16.2
			c1.1-1.7,0.2-19.3,0.2-19.3L448.5,167.7z"/>
		<path class="st33" d="M436.5,180.9c5.8-0.2,11.8-8,12.3-14.2c0.3-3.7-2.5-6.1-1.4-11.2c2.2-10.3-7.9-11.2-12.3-11
			c-6.1,0.3-9.5,5.2-9.3,11.4c0,0,0.2,9.1,0.5,12.1C427.1,176.7,430.8,181.1,436.5,180.9z"/>
		<path class="st8" d="M431,141c-1.4,0.2-3.7,1.3-4,1c-0.6-1.1,2-7.8,14.7-4c0,0-1.1-1.4-0.4-1.6c8.3-2.2,15.7,7.2,15.4,16.4
			c0-1,0.3-2.8,0.8-2.9c0.9-0.2,2,5.1,0,10.1c-1.6,5.3-8.8,12.6-8.9,8.7c-0.4-2.8-0.4-5.1-1.6-7.8c-0.7-1.6-1.5-3.2-1.6-5
			c-0.1-1,0-2.1,0.2-3.1c-0.1,0-7.5-1.3-12.4-4.2c0.3,0.3,0.6,0.5,0.9,0.7c2.1,1.5,7,3.2,6.8,4c-0.2,0.8-14.8,0.3-15-3.8
			c-0.6,0-2,4.6-2.4,3.8C420.3,147.9,425.7,142.6,431,141z"/>
		<g>
			<g>
				<path class="st47" d="M439.9,158.7C440,158.7,440,158.7,439.9,158.7C439.9,158.7,439.9,158.7,439.9,158.7L439.9,158.7z"/>
			</g>
		</g>
		<g>
			<path class="st6" d="M440.8,170.2c-0.1-0.5-9.2-0.1-9.4,0.3c-0.2,0.4,0.8,2.2,3.3,2.2C437.6,172.6,440.9,170.7,440.8,170.2z"/>
			<path class="st48" d="M440.5,170.3c0,0.1,0.1,0.2,0.1,0.1c0,0,0,0,0,0c0,0-0.1,0-0.1,0c-0.1,0-0.2,0-0.3,0c-0.2,0-0.4,0-0.6,0
				c-0.4,0-0.9,0-1.3,0c-0.9,0-1.7,0-2.6,0c-0.9,0-1.7,0-2.6,0.1c-0.4,0-0.9,0.1-1.3,0.1c-0.1,0-0.2,0-0.3,0.1l-0.1,0c0,0,0,0,0,0
				c0,0,0,0,0,0.1c0,0.2,0.1,0.4,0.2,0.5c0.5,0.7,1.3,1.1,2.1,1.2c0.8,0.1,1.7,0,2.5-0.1c0.8-0.2,1.6-0.5,2.4-0.8
				c0.4-0.2,0.8-0.4,1.1-0.6c0.2-0.1,0.3-0.2,0.5-0.4C440.3,170.4,440.3,170.3,440.5,170.3C440.5,170.2,440.4,170.1,440.5,170.3z
				 M441.1,170.1c0,0.4-0.1,0.5-0.2,0.6c-0.1,0.1-0.2,0.2-0.3,0.3c-0.2,0.1-0.4,0.3-0.6,0.4c-0.4,0.2-0.8,0.4-1.2,0.6
				c-0.8,0.3-1.7,0.6-2.5,0.8c-0.9,0.1-1.8,0.2-2.6,0c-0.9-0.2-1.7-0.6-2.2-1.4c-0.1-0.2-0.2-0.4-0.3-0.7c0-0.1,0-0.1,0-0.2
				c0,0,0.1-0.1,0.1-0.1l0.1,0c0.1,0,0.2-0.1,0.3-0.1c0.4-0.1,0.9-0.1,1.3-0.2c0.9-0.1,1.7-0.2,2.6-0.2c0.9-0.1,1.7-0.1,2.6-0.1
				c0.4,0,0.9,0,1.3,0c0.2,0,0.4,0,0.7,0c0.1,0,0.2,0,0.3,0c0.1,0,0.1,0,0.2,0c0,0,0.1,0,0.1,0.1C440.9,169.8,441.1,170,441.1,170.1
				z"/>
		</g>
		<g>
			<path class="st33" d="M447.8,159.8c0.6-1.1,2.5-3.9,4.7-2.5c2.2,1.4,1.4,6.1-0.5,8.1C450,167.3,444.2,167,447.8,159.8z"/>
			<path class="st32" d="M450.4,162.9l-1.7-0.6c0,0,0.2-1.5,0.6-2.1c0.4-0.7,1.7-2.7,3-1.7c1.3,1,0.7,4.4-0.6,5.5
				c-0.8,0.7-1.5,0.8-1.5,0.8L450.4,162.9z"/>
		</g>
		<g>
			<path class="st33" d="M478.7,313.1c0.3-1.1,1.7-4.9,2.7-6.1c3.3-4.3,9.9-3.9,11.7-1.3c1.2,1.7,1.2,12.8-2.4,17.7
				c-0.2,0.3-0.5,0.4-0.8,0.4c-0.3,0.9-0.7,1.6-0.9,1.9c-0.5,0.6-1.2,0.5-1.4,0c-0.3,0.6-0.6,1-0.8,1.2c-0.6,0.8-1.6,0.5-1.5-0.4
				c0.3-2,0.7-3.2,0.9-4.6c0.1-1,0-3.1,0-3.1c-0.1,0.9-0.2,1.8-0.3,2.7c-0.3,2.2-1.5,4.3-2,4.9c-0.6,0.8-1.7,0.3-1.5-0.6
				c0.4-2,0.8-3.2,0.9-4.7c0.1-1.3,0.4-5.3-0.4-7.2c-0.2,0.2-0.5,0.5-0.7,0.8c-0.5,0.7-0.6,1.5-1.4,3.4c-0.6,1.3-2.7,2.3-2.6,0.1
				C478.2,317.3,478.4,314.2,478.7,313.1z"/>
			<path class="st8" d="M477.8,202.5c7,7.1,11,25.9,14.5,47.7c4,24.9,2.4,58.7,2.4,58.7c-0.1,1.6-15-0.9-14.9-2.5
				c0,0-1.7-34.5-6.7-49.9c-5.3-16.3-10.2-28.1-14.9-41.4C455,206,468.5,193.1,477.8,202.5z"/>
		</g>
		<g>
			<defs>
				<path id="SVGID_9_" d="M466.7,194.2c0,0-7-0.1-10.3,3.5c-5.3,5.7-8,7.2-16.4,8.5c0,0,10.9-20.6,10.5-21.9s-1.2-3.7,1.5-4
					C454.7,180,466.8,187.4,466.7,194.2z"/>
			</defs>
			<use xlink:href="#SVGID_9_"  style="overflow:visible;fill:#FD6141;"/>
			<clipPath id="SVGID_10_">
				<use xlink:href="#SVGID_9_"  style="overflow:visible;"/>
			</clipPath>
			<path class="st49" d="M440,206.2c0,0,15.8-15,16.2-18.3s-1.3-7.2-6.1-6.2C445.3,182.7,436.3,198.9,440,206.2z"/>
		</g>
		<g>
			<defs>
				<path id="SVGID_11_" d="M420.4,195.2c0,0,5.6-0.5,8.8,3.6c3.1,3.8,5,7.1,11.4,7.4c0,0-4.5-20.1-4.2-21.5
					c0.3-1.3,0.2-3.7-2.5-3.7S419,189.6,420.4,195.2z"/>
			</defs>
			<use xlink:href="#SVGID_11_"  style="overflow:visible;fill:#FD6141;"/>
			<clipPath id="SVGID_12_">
				<use xlink:href="#SVGID_11_"  style="overflow:visible;"/>
			</clipPath>
			<path class="st50" d="M440.7,206.2c0,0-9.7-14-10.3-17.3c-0.6-3.2,0.7-7.3,5.6-6.6C440.8,182.9,443.8,198.6,440.7,206.2z"/>
		</g>
		<g>
			<path class="st51" d="M462.6,312.2"/>
		</g>
		<g>
			<g>
				<path class="st25" d="M437.6,162.8c0,0.5,0.7,0.7,1.6,0.7c0.9,0,1.6-0.1,1.6-0.6c0-0.5-0.7-1-1.6-1
					C438.4,161.8,437.6,162.3,437.6,162.8z"/>
				<path class="st8" d="M443.2,158.2c0,0.1-2.5-0.6-3.3-0.5c-0.8,0.1-3.7,0.8-4,0.6c-0.3-0.3-0.6-1.3-0.6-1.3s4-0.8,4.9-0.6
					c0.6,0.1,1.8,0.2,2.5,0.7C443,157.3,443.1,157.9,443.2,158.2z"/>
			</g>
			<g>
				<path class="st25" d="M428.9,162.6c0,0.5,0.7,0.7,1.6,0.7c0.9,0,1.6-0.1,1.6-0.6c0-0.5-0.7-1-1.6-1
					C429.6,161.6,428.9,162,428.9,162.6z"/>
				<path class="st8" d="M426.1,158.9c0,0.1,1.8-1,2.5-1c0.7,0.1,3.9,1.1,4.1,0.8c0.3-0.3,0.6-1.4,0.6-1.4s-4.4-0.8-5.2-0.6
					c-0.4,0.1-1.5,0.4-1.8,0.8C426,158,426.1,158.6,426.1,158.9z"/>
			</g>
			<g>
				<path class="st37" d="M433,167.6c0,0,2,0.1,2-0.4c0-0.6-4.1-1.6-4.4-1.2C430.4,166.4,432.2,167.3,433,167.6z"/>
				<path class="st32" d="M433.6,159.3c0,0,0.3,2.6-0.1,3.4c-0.4,0.9-2.4,2.7-2.5,3.1c-0.1,0.4,1.9,1.7,2.1,1.8
					c0.1,0.1-3-0.7-2.8-1.7c0.2-1,2.8-3.2,3-3.7C433.4,161.8,433.6,159.3,433.6,159.3z"/>
			</g>
		</g>
	</g>
	<g>
		<g>
			<g>
				<path class="st52" d="M514.8,199.3c-7.7,15-8.6,61.3-20,100.8c3.4,2.6,8.2,5,12.6,6.4c0,0,23.4-41.9,26.3-96.3
					C534.2,200.6,520.8,187.5,514.8,199.3z"/>
				<g>
					<g>
						<polygon class="st53" points="537.3,316 470.8,304.5 479.8,258.5 545.2,270.2 						"/>
						<polygon class="st12" points="472.9,304.8 482.2,259.9 545.2,270.2 537.3,316 						"/>
						<path class="st53" d="M514.1,287.5c0,2.8-2.2,5-5,5c-2.8,0-5-2.2-5-5c0-2.8,2.2-5,5-5C511.8,282.5,514.1,284.8,514.1,287.5z"
							/>
					</g>
					<g>
						<path class="st54" d="M500,311c-0.3,2.6-3.9,2-3.4-0.6c0.2-1.2,0.7-3.7,1.2-4.9c0.8-1.6,2.5-1.3,2.8,0.6
							C500.7,307.3,500.1,309.8,500,311z"/>
						<path class="st54" d="M503.1,311.8c-0.3,2.5-3.9,2-3.4-0.6c0.2-1.2,0.7-3.6,1.2-4.7c0.8-1.6,2.5-1.3,2.8,0.6
							C503.8,308.2,503.3,310.6,503.1,311.8z"/>
						<path class="st54" d="M506.2,312.5c-0.3,2-3.9,1.6-3.4-0.5c0.2-0.9,0.7-2.9,1.2-3.7c0.8-1.2,2.5-1,2.8,0.4
							C507,309.6,506.4,311.5,506.2,312.5z"/>
						<path class="st54" d="M496.8,310c-0.3,2-3.9,1.6-3.4-0.5c0.2-0.9,0.7-2.9,1.2-3.7c0.8-1.2,2.5-1,2.8,0.4
							C497.6,307.2,497,309.1,496.8,310z"/>
					</g>
				</g>
			</g>
			<g>
				<g>
					<defs>
						<path id="SVGID_13_" d="M524.1,428.5L523,444c0,0,0.5,3.3,0.5,4.4c0,1.1-0.6,4.3-0.6,4.3c-1.4,1-5.7,1.2-7.9,0.5l-0.4-0.4
							c0,0-0.4,0.2-3.5,0.9c-3.1,0.7-12.4,0.6-13.7-0.5c0,0-1.1-4.6,2.8-5.5c9.7-2.2,11.1-4.7,11.9-7.6c0.9-3.7,2.1-13,2.1-13
							L524.1,428.5z"/>
					</defs>
					<use xlink:href="#SVGID_13_"  style="overflow:visible;fill:#207089;"/>
					<clipPath id="SVGID_14_">
						<use xlink:href="#SVGID_13_"  style="overflow:visible;"/>
					</clipPath>
					<path class="st55" d="M509.4,443.5c0,0,2.6-0.2,4,1.2c1.3,1.4,2.4,2.5,4.4,2.2c5.3-0.9,5.1-5,7.3-3.1l-0.2,10.7l-29.1,0.7
						l0.1-8.1L509.4,443.5z"/>
					<path class="st56" d="M496.6,451.9c0,0,0.4,1.4,9.5,1.1c9.2-0.3,10-2.3,17.2-2l-0.4,2.5l-26.8,1.9L496.6,451.9z"/>
				</g>
				<path class="st40" d="M549.3,279c-3.6-15.2-25-16.7-27.1-1.3c-3,22.1-11.7,165-11.7,165c4.2,3.4,10.1,1.6,13.9,0.4
					C524.5,443.1,558.7,318.7,549.3,279z"/>
			</g>
			<g>
				<g>
					<defs>
						<path id="SVGID_15_" d="M561.8,428.9l0,15.4c0,0-0.7,3.2-0.8,4.3c-0.1,1.1,0.4,4.3,0.4,4.3c1.3,1.1,5.6,1.6,7.8,1l0.4-0.3
							c0,0,0.4,0.3,3.4,1.1c3.1,0.9,12.3,1.5,13.7,0.4c0,0,1.4-4.6-2.4-5.7c-9.5-2.8-10.8-5.5-11.3-8.4c-0.7-3.7-1.2-13.1-1.2-13.1
							L561.8,428.9z"/>
					</defs>
					<use xlink:href="#SVGID_15_"  style="overflow:visible;fill:#207089;"/>
					<clipPath id="SVGID_16_">
						<use xlink:href="#SVGID_15_"  style="overflow:visible;"/>
					</clipPath>
					<path class="st57" d="M575.4,444.9c0,0-2.5-0.4-4,1c-1.4,1.3-2.5,2.4-4.6,1.9c-5.2-1.3-4.7-5.3-7.1-3.6l-0.5,10.7l29,2.7
						l0.5-8.1L575.4,444.9z"/>
					<path class="st58" d="M587.5,454.1c0,0-0.5,1.4-9.6,0.5c-9.1-0.9-9.8-3-17-3.2l0.2,2.5l26.6,3.7L587.5,454.1z"/>
				</g>
				<path class="st44" d="M576.3,274.1c-7.3-13.8-29-9.5-29.5,6.1c-1.7,49.4,14.3,163.6,14.3,163.6c4.5,2.5,9.9,1.6,13.2-0.5
					C574.3,443.3,590,299.9,576.3,274.1z"/>
			</g>
			<path class="st44" d="M525.6,284.7c0.2,8.1,15.5,17.5,28.8,17.2c13.3-0.3,23.3-7.2,23.1-15.3c-0.6-26.2-11.5-40.3-24.8-40
				C539.5,246.9,525,258,525.6,284.7z"/>
			<g>
				<path class="st59" d="M521.9,281c0.1,4.8,14.3,6.8,29.7,6.5c15.4-0.4,27-2.9,26.9-7.7c-0.4-15.4-13.8-24-29.2-23.6
					C533.8,256.6,521.5,265.4,521.9,281z"/>
				<g>
					<path class="st14" d="M588.4,197.4c-5.8-9.8-36.5-18.7-37.9-18.7c-9.8-0.3-31.7,13.5-34,18.5c-1.9,4.4,6.6,40.9,5.7,57.5
						c-0.4,8.6-1.5,15.1-1.3,23.8c0.2,8.1,58.1,8.2,57.9,0.1c-0.2-6.7-1.4-11.8-1.3-18.9C577.7,245.7,590.9,201.6,588.4,197.4z"/>
					<path class="st60" d="M578.8,278.7c-0.2-6.7-1.4-11.8-1.3-18.9c0.2-14.1,13.4-58.2,10.9-62.4c-2.5-4.2-11.8-1.3-13,3.6
						c-10.5,24.4-10.4,46.1-1.8,81.3C576.9,281.4,578.9,280.2,578.8,278.7z"/>
					<g>
						<path class="st6" d="M546.9,205.7c0,0.7,0.6,1.3,1.4,1.3c0.7,0,1.3-0.6,1.3-1.4c0-0.7-0.6-1.3-1.4-1.3
							C547.5,204.4,546.9,205,546.9,205.7z"/>
						<path class="st6" d="M545.1,220.2c0,0.7,0.6,1.3,1.4,1.3c0.7,0,1.3-0.6,1.3-1.4c0-0.7-0.6-1.3-1.4-1.3
							C545.7,218.8,545.1,219.4,545.1,220.2z"/>
						<path class="st6" d="M544.1,234.2c0,0.7,0.6,1.3,1.4,1.3c0.7,0,1.3-0.6,1.3-1.4c0-0.7-0.6-1.3-1.4-1.3
							C544.6,232.8,544,233.4,544.1,234.2z"/>
						<path class="st6" d="M543,247.2c0,0.7,0.6,1.3,1.4,1.3c0.7,0,1.3-0.6,1.3-1.4c0-0.7-0.6-1.3-1.4-1.3S543,246.4,543,247.2z"/>
						<path class="st6" d="M543,259.9c0,0.7,0.6,1.3,1.4,1.3c0.7,0,1.3-0.6,1.3-1.4s-0.6-1.3-1.4-1.3
							C543.6,258.6,543,259.2,543,259.9z"/>
						<path class="st6" d="M542.7,272.7c0,0.7,0.6,1.3,1.4,1.3c0.7,0,1.3-0.6,1.3-1.4c0-0.7-0.6-1.3-1.4-1.3
							C543.3,271.4,542.7,272,542.7,272.7z"/>
					</g>
				</g>
			</g>
			<g>
				<g>
					<path class="st6" d="M558.2,234.7h-23.7c-0.5,0-0.9-0.4-0.9-0.9v-14.5c0-0.5,0.4-0.9,0.9-0.9h23.7c0.5,0,0.9,0.4,0.9,0.9v14.5
						C559.1,234.3,558.7,234.7,558.2,234.7z"/>
					<path class="st14" d="M541.9,231.9h-6.1c-0.4,0-0.7-0.3-0.7-0.7v-8.1c0-0.4,0.3-0.7,0.7-0.7h6.1c0.4,0,0.7,0.3,0.7,0.7v8.1
						C542.6,231.6,542.3,231.9,541.9,231.9z"/>
				</g>
				<rect x="543" y="219" class="st25" width="6.6" height="1"/>
				<path class="st28" d="M547.6,219.5h-2.7c-0.2,0-0.4-0.2-0.4-0.4v-3.5c0-0.2,0.2-0.4,0.4-0.4h2.7c0.2,0,0.4,0.2,0.4,0.4v3.5
					C548,219.3,547.8,219.5,547.6,219.5z"/>
				<g>
					<rect x="545.4" y="222.4" class="st29" width="11.7" height="1.1"/>
					<rect x="545.4" y="224.7" class="st29" width="11.7" height="1.1"/>
					<rect x="545.4" y="227" class="st29" width="11.7" height="1.1"/>
					<rect x="545.4" y="230.8" class="st29" width="11.7" height="1.1"/>
				</g>
			</g>
			<g>
				<path class="st61" d="M547.8,216.2h-3.1c-0.3,0-0.6-0.2-0.8-0.5c-3.9-9.3-9.6-29.2-6.6-33.3c0.1-0.2,0.7-0.7,0.6-0.4
					c-1.7,4,2.4,22.9,6.8,33.4l3,0l0.2-0.3c5-5.7,16.8-20.8,17.5-32c0-0.3,0.8,0.5,0.8,0.8c-0.7,11.5-12.6,26-17.6,31.8l-0.2,0.3
					C548.2,216.1,548,216.2,547.8,216.2z"/>
			</g>
			<g>
				<path class="st59" d="M561.9,175.4c-1.1-2.5-20.7-1.7-21.5,0.8l1,10.4l20.6-1.3L561.9,175.4z"/>
				<g>
					<g>
						<path class="st33" d="M556.7,161.8c0,0-0.1,6.7,1.4,12c1.5,5.3,5.4,12.2,5.4,12.2l-9.3,1.2l-6,9.4l-2.2-10.6l-7.2-2.2
							c0,0,6.6-4.5,5.9-11.9c-0.6-6.4-0.9-9.9-0.9-9.9L556.7,161.8z"/>
						<g>
							<path class="st62" d="M561.9,175.4c0,0,0.6,2-3.2,5.8c-1.2,1.2-5.3,4.1-5.3,4.1l-5.6,12.1l1.4,0.2l5.4-11.3l6.3,8.5
								c3-3.8,5-7.4,5.2-10.6L561.9,175.4z"/>
							<polygon class="st59" points="560.9,194.8 554.5,186.2 549.2,197.6 555.9,191.5 							"/>
						</g>
						<g>
							<path class="st62" d="M540.5,176.1c0,2.8,1.9,7.4,5.4,9.3l3.3,12.1l-1.4-0.2l-2.7-10.9l-3.8,8.6c-2.2-3.3-3.9-6.9-4.2-10.8
								L540.5,176.1z"/>
							<polygon class="st59" points="541.2,195 545,186.5 547.7,197.4 545.2,191.5 							"/>
						</g>
						<g>
							<g>
								<path class="st31" d="M537.7,160.9c1.9-1.6,2.1-6.5,0.5-8.9c0,0-1.3-2-3.7-0.9c-1.9,0.9-2.3,3.3-1.9,5.7
									C533,159.6,535.6,162.6,537.7,160.9z"/>
								<path class="st32" d="M537,159.8l-0.6-2.6l1.6-0.5c0,0-0.5-4.8-3.1-3.3C532.7,154.6,534.4,160.5,537,159.8z"/>
							</g>
							<g>
								<path class="st31" d="M556.7,161.8c0,0-0.4,4.5-2.1,6.9c-2,2.8-4.8,6.3-12.8,5.1c-8-1.2-6.3-18.2-6.3-18.2s-0.5-6.7,1.1-12
									c1.6-5.3,12.5-7.1,21-3.7c0,0,2.3,2.6,0.3,13.1c0,0,1.8-1.8,4.2-0.2c1.8,1.2,1.8,3.7,0.9,6
									C562,161.5,558.9,163.7,556.7,161.8z"/>
								<path class="st63" d="M535.4,159.2c0,0-6.8,17.9,5.7,20c7.2,1.2,13.6-2.5,15.8-7.2c1.4-3,0.1-9.9-0.6-13.3
									c-0.1-0.5-0.5,0-0.5-0.4l-1.9,7.9c0,0-3.9-4.9-10.8-5.1c-6.2-0.1-7.3,3.7-7.3,3.7L535.4,159.2z"/>
								<g>
									<path class="st33" d="M548.7,163.5c-0.7,0.5-1.5,0.7-2.2,0.9c-0.8,0.2-1.6,0.3-2.4,0.3c-0.4,0-0.8,0-1.2-0.1
										c-0.4,0-0.8,0-1.2-0.1c-0.4-0.1-0.8-0.2-1.2-0.3c-0.4-0.2-0.8-0.4-1.1-0.8c0,0,0-0.1,0-0.1c0,0,0.1,0,0.1,0l0,0
										c0.7,0.2,1.5,0.2,2.2,0.4c0.4,0.1,0.8,0.2,1.2,0.2c0.4,0.1,0.8,0.1,1.2,0.1c1.5,0.1,3.1-0.1,4.6-0.7l0,0
										C548.6,163.3,548.7,163.4,548.7,163.5C548.7,163.4,548.7,163.5,548.7,163.5z"/>
								</g>
								<path class="st63" d="M561.9,139.8c-1.2-2.3-5.5-3.7-9.2-4.5c-0.1-0.3-0.1-0.6-0.2-1c-1.7-5.3-7.6-5.2-7.6-5.2v3.4
									c-0.9-1.4-0.9-4-0.9-4c-4.3,2.6-4,5.8-4,5.8l-1-2.5c0,0-3,2.4-3.1,5.7c-0.7,0.6-1.3,1.2-1.5,1.9c-1.4,4.3,1.1,16.1,1.1,16.1
									l0.6-8.5c0,0,0.4-2.8,1.4-4.9c0,0,0.9,1.1,6.5,1.1c0.2,0,0.5,0,0.7,0c0.1,0,0.2,0,0.2,0c0,0,0,0,0.1,0
									c5.2-0.1,9.9-1.3,9.9-1.3s0.3,3.2,1.2,6c0.5,1.6-0.4,10.8-0.4,10.8s0.2,1.1,0.5,0c0.6-2,1.7-6.8,4-6.5
									C560.3,152.2,564.2,144,561.9,139.8z"/>
								<path class="st32" d="M557.7,160.9l1.2-2.4l-1.6-0.8c0,0,1.5-4.6,4-2.6C563.3,156.6,560.3,162.1,557.7,160.9z"/>
							</g>
							<g>
								<g>
									<path class="st25" d="M547.4,155.7c0,0.6,0.8,0.7,1.7,0.7c1,0,1.7-0.1,1.8-0.7c0-0.6-0.8-1.1-1.7-1.1
										C548.2,154.7,547.4,155.1,547.4,155.7z"/>
									<path class="st63" d="M553.8,151.4c0,0.1-2.8-0.8-3.6-0.8c-0.9,0-4.2,0.6-4.5,0.3c-0.3-0.3-0.5-1.4-0.5-1.4
										s4.5-0.5,5.4-0.3C551.6,149.4,553.5,150.6,553.8,151.4z"/>
								</g>
								<g>
									<path class="st25" d="M537.7,155.6c0,0.6,0.8,0.7,1.7,0.7c1,0,1.7-0.1,1.8-0.7c0-0.6-0.8-1.1-1.7-1.1
										C538.5,154.5,537.7,155,537.7,155.6z"/>
									<path class="st63" d="M536.5,151.4c0,0.1,1.5-1.1,2.1-1c0.6,0,3.3,1,3.5,0.7c0.2-0.3,0.5-1.4,0.5-1.4s-3.8-0.7-4.4-0.5
										C537.5,149.3,536.7,150.6,536.5,151.4z"/>
								</g>
								<g>
									<path class="st37" d="M542.4,161.2c0,0,2.2,0.1,2.2-0.5c0-0.6-4.6-1.7-4.9-1.3C539.4,159.8,541.4,160.8,542.4,161.2z"/>
									<path class="st32" d="M542.8,152c0,0,0.4,2.8,0,3.8c-0.4,1-2.7,3-2.7,3.5c-0.1,0.5,2.1,1.8,2.3,1.9
										c0.2,0.1-3.3-0.8-3.1-1.9c0.2-1.1,3.1-3.6,3.2-4.1C542.6,154.7,542.8,152,542.8,152z"/>
								</g>
							</g>
						</g>
						<g>
							<g>
								<path class="st64" d="M534.3,152.3c0,0-1.2,5.2,3.9,5.2c5.2,0,3.9-5.3,3.9-5.3C536.5,151.4,534.3,152.3,534.3,152.3z"/>
								<path class="st64" d="M553.2,152.2c-5.6-0.7-7.8,0.2-7.8,0.2s-1.2,5.2,3.9,5.2C554.5,157.5,553.2,152.2,553.2,152.2z"/>
							</g>
							<path class="st8" d="M557.4,153.4v-0.8l-3.9-0.6l-0.2,0c-5.6-0.7-7.9,0.1-7.9,0.2l-0.1,0.1l0,0.1c-1.4-0.7-2.5-0.2-2.8-0.1
								c0,0,0-0.1,0-0.1l0-0.2l-0.2,0c-5.6-0.7-7.9,0.1-7.9,0.2l-0.1,0.1l0,0.1c0,0.1-0.6,2.5,0.7,4.1c0.7,0.9,1.9,1.4,3.5,1.4
								c1.6,0,2.7-0.5,3.5-1.4c0.9-1.1,0.9-2.7,0.8-3.5c0.9-0.7,2.3-0.1,2.6,0c-0.1,0.8-0.1,2.4,0.8,3.5c0.7,0.9,1.9,1.4,3.5,1.4
								c1.6,0,2.7-0.5,3.5-1.4c0.8-1,0.9-2.4,0.8-3.3l0,0L557.4,153.4z M541.3,156c-0.6,0.8-1.6,1.2-3.1,1.2c-1.4,0-2.4-0.4-3-1.2
								c-1-1.2-0.7-3-0.6-3.5c0.5-0.2,2.8-0.7,7.4-0.1C542,153,542.2,154.8,541.3,156z M552.4,156c-0.6,0.8-1.6,1.2-3.1,1.2
								c-1.4,0-2.4-0.4-3-1.2c-1-1.2-0.7-3-0.6-3.5c0.5-0.2,2.8-0.7,7.4-0.1C553.1,153,553.3,154.8,552.4,156z"/>
						</g>
					</g>
				</g>
			</g>
			<g>
				<path class="st14" d="M588.7,197.8c-7.8-10.7-23.7,2.9-17.5,16c6.3,13.3,15.7,25.1,17.5,37.4c1.3,8.5-18.9,41.5-18.9,41.5
					c-0.1,1.6,9,10.8,10.6,10.9c0,0,34.7-36.8,31-57.1C608.5,229.9,599,213.3,588.7,197.8z"/>
				<path class="st52" d="M589.8,251.2c2.7-2.4,12.5-6.4,13.3-5.4c0.7,0.8-9,4.2-9,4.2s12.4-3.9,13-1.3c0.4,1.4-7.6,0.4-16.5,3.2
					C590.8,252,588.2,252.6,589.8,251.2z"/>
				<path class="st65" d="M567.3,288.7c0,0,3.9,8.5,14.1,15.5c0,0,0.2,1-0.8,1.3c-0.9,0.3-3.1-1.5-7.1-5.5
					c-2.7-2.7-7.3-9.4-7.4-10.3C566.1,288.7,567.3,288.7,567.3,288.7z"/>
			</g>
		</g>
	</g>
	<g>
		<path class="st15" d="M253.3,455.8c0,2.6-37.1,4.7-82.8,4.7c-45.7,0-82.8-2.1-82.8-4.7c0-2.6,37.1-4.7,82.8-4.7
			C216.2,451.1,253.3,453.2,253.3,455.8z"/>
		<g>
			<g>
				<defs>
					<path id="SVGID_17_" d="M138,431.5l0,15.6c0,0,0.7,3.2,0.8,4.4c0.1,1.1-0.4,4.3-0.4,4.3c-1.3,1.1-5.6,1.6-7.9,1.1l-0.4-0.3
						c0,0-0.4,0.3-3.5,1.1c-3.1,0.9-12.4,1.5-13.9,0.4c0,0-1.4-4.6,2.4-5.7c9.6-2.8,10.9-5.5,11.4-8.5c0.7-3.8,1.3-13.2,1.3-13.2
						L138,431.5z"/>
				</defs>
				<use xlink:href="#SVGID_17_"  style="overflow:visible;fill:#207089;"/>
				<clipPath id="SVGID_18_">
					<use xlink:href="#SVGID_17_"  style="overflow:visible;"/>
				</clipPath>
				<path class="st66" d="M124.4,447.6c0,0,2.6-0.4,4.1,1c1.4,1.3,2.5,2.4,4.6,1.9c5.3-1.3,4.8-5.4,7.1-3.6l0.5,10.8l-29.3,2.7
					l-0.5-8.1L124.4,447.6z"/>
				<path class="st67" d="M112.1,457c0,0,0.5,1.4,9.7,0.5c9.2-0.9,9.9-3,17.1-3.2l-0.2,2.5l-26.9,3.7L112.1,457z"/>
			</g>
			<g>
				<defs>
					<path id="SVGID_19_" d="M176.1,431.2l1.1,15.5c0,0-0.5,3.3-0.5,4.4c0,1.1,0.7,4.3,0.7,4.3c1.4,1,5.7,1.2,7.9,0.5l0.4-0.4
						c0,0,0.4,0.2,3.5,0.9c3.2,0.7,12.5,0.6,13.9-0.5c0,0,1.1-4.7-2.8-5.6c-9.7-2.2-11.2-4.7-12-7.7c-1-3.7-2.2-13.1-2.2-13.1
						L176.1,431.2z"/>
				</defs>
				<use xlink:href="#SVGID_19_"  style="overflow:visible;fill:#207089;"/>
				<clipPath id="SVGID_20_">
					<use xlink:href="#SVGID_19_"  style="overflow:visible;"/>
				</clipPath>
				<path class="st68" d="M190.9,446.3c0,0-2.6-0.2-4,1.2c-1.3,1.4-2.4,2.6-4.5,2.2c-5.3-0.9-5.1-5.1-7.4-3.1l0.2,10.8l29.4,0.7
					l-0.1-8.2L190.9,446.3z"/>
				<path class="st69" d="M203.8,454.8c0,0-0.4,1.4-9.6,1.1c-9.2-0.3-10.1-2.3-17.3-2l0.4,2.5l27.1,1.9L203.8,454.8z"/>
			</g>
			<g>
				<path class="st70" d="M164.3,208.6c4.3,9,32.6,43.3,43.9,47.8c16.8,6.7,44.2-4.6,56-9.2c4.5-2.6-0.3-15.1-4.3-14.5
					c0,0-38.8,5.6-43.1,3.2c-3.6-2-21.7-30.2-37-42.1C174.7,189.8,158.6,196.5,164.3,208.6z"/>
				<path class="st6" d="M264.6,238.8c0.7,2.4,0.7,4.6,0.1,6c-0.3,0.7-0.8,1.2-1.3,1.4c-0.8,0.2-1.7-0.1-2.6-1c-1-1-2-2.6-2.5-4.5
					c-0.7-2.4-0.7-4.7-0.1-6c0.3-0.7,0.7-1.2,1.3-1.3c0.2-0.1,0.4-0.1,0.7-0.1l0,0C261.8,233.4,263.7,235.7,264.6,238.8z"/>
				<path class="st33" d="M287.4,230.8c-0.2,0.3-0.6,0.7-1.1,1.3c0.7,0.1,1.1,1,0.5,1.8c-0.3,0.4-1,1-1.9,1.7c0.1,0.3,0,0.7-0.2,1.1
					c-2.9,4.2-15.8,8.6-19.2,8c-0.1,0-0.2,0-0.3,0c-1,0-3,0.8-3.8,0.4c0,0-0.1,0-0.1-0.1c-1-1-2-2.6-2.5-4.5c-0.7-2.4-0.7-4.7-0.1-6
					c0.4-0.5,1.1-0.6,2-1.4l0,0c0.4-0.4,0.9-1,1.5-1.9c0.6-1,2.5-3.3,6.8-6.4c1.1-0.8,4.6-1.8,5.7-2.1c2.4-0.7,2,2.1,0.7,3.2
					c-1.8,1.6-2.8,1.9-3.4,2.7c-0.3,0.5-0.6,0.9-0.8,1.3c1.2,0,6.9-1.3,8.4-1.8c1.6-0.6,2.9-1.4,5-2.5c1-0.5,1.8,0.7,1.1,1.7
					c-0.5,0.7-2.4,2.8-4.9,3.8c-1,0.4-2,0.8-2.9,1.1c0.1,0.1,2.4-0.5,3.5-0.8c1.6-0.5,2.8-1.4,4.9-2.4
					C287.4,228.7,288.1,229.8,287.4,230.8z"/>
			</g>
			<path class="st40" d="M150.6,280.4c3.6-15.3,25.2-16.9,27.3-1.3c3,22.3,11.8,166.4,11.8,166.4c-4.2,3.4-10.2,1.6-14,0.4
				C175.7,445.9,141.2,320.4,150.6,280.4z"/>
			<path class="st44" d="M123.4,275.4c7.3-13.9,29.2-9.5,29.8,6.2c1.7,49.8-14.4,165-14.4,165c-4.5,2.5-10,1.6-13.3-0.5
				C125.5,446.1,109.6,301.5,123.4,275.4z"/>
			<path class="st44" d="M174.5,289.8c-0.2,8.2-8.3,17.6-21.7,17.3c-13.4-0.3-30.8-7.2-30.6-15.4c0.6-26.5,11.6-40.6,25-40.3
				C160.6,251.7,175.2,262.8,174.5,289.8z"/>
			<path class="st59" d="M178.3,282.4c-0.1,4.8-14.4,6.9-30,6.5c-15.6-0.4-27.2-2.9-27.1-7.7c0.4-15.5,13.9-24.2,29.5-23.8
				C166.3,257.8,178.7,266.6,178.3,282.4z"/>
			<g>
				<path class="st71" d="M114.4,198.1c5.9-9.9,33.7-18.8,35.1-18.9c9.8-0.3,31,13.1,33.3,18.1c2,4.4-5.7,41.8-4.8,58.5
					c0.4,8.7,1.6,15.2,1.3,24c-0.2,8.2-58.6,8.3-58.4,0.1c0.2-6.8,5.1-11.8,5-18.9C125.7,246.9,111.8,202.3,114.4,198.1z"/>
				<path class="st25" d="M135.9,183.5c0,0,13.9,49.4,8.2,80.6c-2.2,12-18.3,25.8-22.8,35.3c-2.7,5.8-3.1,19.4-3.1,19.4
					s-16.9-6.5-16.9-19.4c0-7,20-46.5,20-46.5s-13.7-43.8-10.3-54.4C114.3,187.9,135.9,183.5,135.9,183.5z"/>
				<path class="st72" d="M127.7,257.4c7.4-20.9,6-67.9-12.6-64.7c-1.9,1.7-3.5,3.6-4.2,5.9c-3.3,10.6,10.3,54.4,10.3,54.4
					s-6.1,10-10.1,20.3C117.1,267.6,125,265,127.7,257.4z"/>
				<g>
					<path class="st6" d="M153.1,206.5c0,0.8-0.6,1.3-1.4,1.3c-0.8,0-1.3-0.6-1.3-1.4c0-0.8,0.6-1.3,1.4-1.3
						C152.5,205.1,153.1,205.7,153.1,206.5z"/>
					<path class="st6" d="M154.9,221c0,0.8-0.6,1.3-1.4,1.3c-0.8,0-1.3-0.6-1.3-1.4c0-0.8,0.6-1.3,1.4-1.3
						C154.3,219.7,154.9,220.3,154.9,221z"/>
					<path class="st6" d="M155.9,235.2c0,0.8-0.6,1.3-1.4,1.3c-0.8,0-1.3-0.6-1.3-1.4c0-0.8,0.6-1.3,1.4-1.3
						C155.4,233.8,156,234.4,155.9,235.2z"/>
					<path class="st6" d="M157,248.3c0,0.8-0.6,1.3-1.4,1.3s-1.3-0.6-1.3-1.4c0-0.8,0.6-1.3,1.4-1.3
						C156.4,246.9,157,247.5,157,248.3z"/>
					<path class="st6" d="M157,261.2c0,0.8-0.6,1.3-1.4,1.3c-0.8,0-1.3-0.6-1.3-1.4c0-0.8,0.6-1.3,1.4-1.3
						C156.4,259.8,157,260.4,157,261.2z"/>
					<path class="st6" d="M157.3,274.1c0,0.8-0.6,1.3-1.4,1.3c-0.8,0-1.3-0.6-1.3-1.4c0-0.8,0.6-1.3,1.4-1.3
						C156.8,272.7,157.3,273.3,157.3,274.1z"/>
				</g>
			</g>
			<g>
				<path class="st73" d="M112.6,195.2c7.9-10.8,20.7,4.6,14.4,17.9c-6.3,13.4-14.3,26.9-16.1,39.2c-1.3,8.6,19.1,41.9,19.1,41.9
					c0.1,1.6-9.1,10.9-10.7,10.9c0,0-35-37.1-31.3-57.6C90.9,230.9,97.6,211.8,112.6,195.2z"/>
				<path class="st72" d="M109.8,252.3c-2.7-2.4-12.6-6.5-13.4-5.4c-0.7,0.8,9,4.3,9,4.3s-12.5-3.9-13.2-1.3
					c-0.4,1.4,7.7,0.4,16.6,3.3C108.8,253.1,111.4,253.7,109.8,252.3z"/>
				<path class="st65" d="M132.5,290.2c0,0-3.9,8.6-14.3,15.6c0,0-0.2,1,0.8,1.3c0.9,0.3,3.1-1.5,7.2-5.6c2.7-2.7,7.3-9.5,7.5-10.4
					C133.7,290.2,132.5,290.2,132.5,290.2z"/>
			</g>
			<path class="st25" d="M162.4,182.8c0,0,2.5,72.4,3.2,77c0.7,4.6,5.9,52.4,8.9,56.1c3,3.7,11.9-1.7,11.9-1.7l-6.9-60.3
				c0,0,6.8-47.5,4.2-55.9C181.1,189.5,162.4,182.8,162.4,182.8z"/>
			<g>
				<path class="st74" d="M138.3,176.7c1.7-2.3,19.2-2.7,20.1-0.3l-0.4,10.5l-20.8-0.2L138.3,176.7z"/>
				<g>
					<g>
						<path class="st33" d="M142.8,162.8c0,0,0.5,6.7-0.7,12.2c-1.2,5.5-4.8,12.6-4.8,12.6l9.4,0.7l6.6,9.1l1.7-10.8l7.1-2.6
							c0,0-6.8-4.2-6.6-11.6c0.2-6.5,0.4-10.1,0.4-10.1L142.8,162.8z"/>
						<g>
							<g>
								<path class="st31" d="M161.8,160.7c-2-1.5-2.5-6.5-1-8.9c0,0,1.2-2.1,3.7-1.1c1.9,0.8,2.5,3.2,2.2,5.6
									C166.6,159.3,164,162.4,161.8,160.7z"/>
								<path class="st32" d="M162.5,159.6l0.5-2.6l-1.6-0.5c0,0,0.2-4.8,2.9-3.5C166.6,154.2,165.2,160.2,162.5,159.6z"/>
							</g>
							<g>
								<path class="st31" d="M142.8,162.8c0,0,0.7,4.5,2.5,6.8c2.2,2.8,5.2,6.1,13.2,4.4c8-1.7,5.4-18.7,5.4-18.7s0.2-6.7-1.8-12
									c-1.9-5.2-13-6.5-21.3-2.6c0,0-2.1,2.7,0.4,13.2c0,0-1.9-1.7-4.2,0.1c-1.8,1.3-1.6,3.8-0.6,6.1
									C137.4,162.7,140.7,164.7,142.8,162.8z"/>
								<g>
									<path class="st35" d="M151,163.8c1.5,0.6,3.1,0.6,4.6,0.5c0.4,0,0.8-0.1,1.2-0.2c0.4-0.1,0.8-0.2,1.2-0.3
										c0.8-0.2,1.5-0.2,2.2-0.5l0,0c0.1,0,0.1,0,0.1,0.1c0,0,0,0.1,0,0.1c-0.2,0.4-0.6,0.7-1,0.8c-0.4,0.2-0.8,0.3-1.2,0.4
										c-0.4,0.1-0.8,0.1-1.2,0.2c-0.4,0.1-0.8,0.1-1.2,0.1c-0.8,0-1.7,0-2.5-0.2c-0.8-0.2-1.6-0.4-2.3-0.8c0,0-0.1-0.1,0-0.1
										C151,163.8,151,163.8,151,163.8L151,163.8z"/>
								</g>
								<path class="st75" d="M136.3,140.8c5.5-11.7,16.6-11.6,16.6-11.6l0.2,3.4c0.8-1.5,0.7-4.1,0.7-4.1c4.5,2.3,4.4,5.6,4.4,5.6
									l0.8-2.5c6.9,3.5,7.3,11.8,4.8,23.7l-1-8.5c0,0-0.5-2.8-1.7-4.9c0,0-0.9,1.1-6.5,1.4c-0.2,0-0.5,0-0.7,0c-0.1,0-0.2,0-0.2,0
									c0,0,0,0-0.1,0c-5.3,0.1-10.1-0.7-10.1-0.7s-0.1,3.2-0.9,6.1c-0.4,1.7,1,10.9,1,10.9s-0.2,1.1-0.6,0c-0.7-2-1.5-7.6-6.2-5.6
									C136.8,154,134.3,145.2,136.3,140.8z"/>
								<path class="st32" d="M141.7,161.9l-1.3-2.4l1.5-0.9c0,0-1.7-4.6-4.1-2.4C135.9,157.9,139.2,163.2,141.7,161.9z"/>
							</g>
							<g>
								<g>
									<path class="st25" d="M151.9,156.1c0,0.6-0.7,0.8-1.7,0.8s-1.8,0-1.8-0.6c0-0.6,0.7-1.1,1.7-1.2
										C151,155.1,151.8,155.5,151.9,156.1z"/>
									<path class="st75" d="M145.1,152.1c0,0.1,2.7-1,3.6-1c0.9,0,4.2,0.4,4.5,0.1c0.3-0.3,0.5-1.5,0.5-1.5s-4.6-0.3-5.5,0
										c-0.6,0.2-2,0.4-2.7,1.1C145.2,151,145.1,151.7,145.1,152.1z"/>
								</g>
								<g>
									<path class="st25" d="M161.6,155.5c0,0.6-0.7,0.8-1.7,0.8c-1,0.1-1.8,0-1.8-0.6c0-0.6,0.7-1.1,1.7-1.2
										C160.7,154.4,161.5,154.9,161.6,155.5z"/>
									<path class="st75" d="M162.6,151.1c0,0.1-1.6-1-2.2-0.9c-0.6,0.1-3.3,1.2-3.5,0.9c-0.3-0.3-0.6-1.4-0.6-1.4
										s3.8-0.9,4.4-0.8c0.3,0.1,1.3,0.3,1.6,0.7C162.7,150.1,162.6,150.8,162.6,151.1z"/>
								</g>
								<g>
									<path class="st37" d="M157.2,161.3c0,0-2.2,0.3-2.3-0.4c0-0.6,4.5-2,4.8-1.6C160.1,159.8,158.2,160.9,157.2,161.3z"/>
									<path class="st32" d="M156.2,152.1c0,0-0.2,2.9,0.2,3.8c0.5,1,2.8,2.9,3,3.4c0.1,0.5-2.1,2-2.2,2.1c-0.2,0.1,3.3-1,3-2
										c-0.3-1.1-3.3-3.4-3.5-4C156.6,154.8,156.2,152.1,156.2,152.1z"/>
								</g>
							</g>
						</g>
						<g>
							<g>
								<path class="st64" d="M164.9,152c0,0,1.5,5.1-3.7,5.4c-5.2,0.3-4.2-5.1-4.2-5.1C162.6,151.2,164.9,152,164.9,152z"/>
								<path class="st64" d="M145.8,152.8c5.6-1.1,7.9-0.3,7.9-0.3s1.5,5.1-3.7,5.4C144.7,158.2,145.8,152.8,145.8,152.8z"/>
							</g>
							<path class="st76" d="M145.4,153.8L145.4,153.8c0,0.9,0.1,2.2,1,3.2c0.8,0.9,2,1.3,3.6,1.2c1.6-0.1,2.7-0.6,3.4-1.6
								c0.9-1.2,0.8-2.7,0.6-3.6c0.3-0.1,1.7-0.8,2.6-0.2c-0.1,0.9,0,2.4,1,3.5c0.8,0.9,2,1.3,3.6,1.2c1.6-0.1,2.7-0.6,3.4-1.6
								c1.2-1.7,0.5-4.1,0.5-4.2l0-0.1l-0.1,0c-0.1,0-2.4-0.8-8,0.2l-0.2,0l0,0.2c0,0,0,0,0,0.1c-0.3-0.1-1.4-0.6-2.8,0.2l0-0.1
								l-0.1,0c-0.1,0-2.4-0.8-8,0.2l-0.2,0l-3.9,0.9l0,0.9L145.4,153.8z M157.2,152.5c4.6-0.8,6.9-0.4,7.4-0.3
								c0.1,0.5,0.4,2.3-0.5,3.6c-0.6,0.8-1.6,1.3-3,1.4c-1.4,0.1-2.5-0.3-3.1-1C157,154.9,157.1,153,157.2,152.5z M146,153.1
								c4.6-0.8,6.9-0.4,7.4-0.3c0.1,0.5,0.4,2.3-0.5,3.6c-0.6,0.8-1.6,1.3-3,1.4c-1.4,0.1-2.5-0.3-3.1-1
								C145.8,155.5,145.9,153.6,146,153.1z"/>
						</g>
					</g>
				</g>
				<g>
					<path class="st71" d="M138.3,176.7c0,0-0.5,2.1,3.5,5.6c1.3,1.1,5.6,3.8,5.6,3.8l6.3,11.9l-1.4,0.2l-6-11.1l-5.9,8.9
						c-1.9-2.5-4.9-8.4-5.3-11.7L138.3,176.7z"/>
					<polygon class="st74" points="140.4,196.1 146.3,187.2 152.3,198.3 145.2,192.6 					"/>
				</g>
				<g>
					<path class="st71" d="M158.4,176.4c0.1,2.8-1.9,8.1-3.5,9.6l-2.6,12.4l1.4-0.2l2.1-11.2l4.3,8.4c2.1-3.5,2.8-9,1.7-13
						L158.4,176.4z"/>
					<polygon class="st74" points="160.2,195.3 155.9,186.9 153.7,198.1 156,192 					"/>
				</g>
			</g>
		</g>
	</g>
	<path class="st77" d="M306.2,48.3c7.1,0,12.9,5.8,12.9,12.9c0,7.1-5.8,12.9-12.9,12.9c-7.1,0-12.9-5.8-12.9-12.9
		C293.3,54.1,299.1,48.3,306.2,48.3z M309.4,30.9c-2.1-0.2-4.3-0.2-6.4,0l-0.6,9.3c-1.5,0.3-2.9,0.7-4.3,1.3l-5.6-7.5
		c-1.9,1-3.7,2.1-5.4,3.5l4.5,8.2c-1.1,1-2.1,2.2-2.9,3.4l-8.8-3.3c-1.1,1.9-2,3.8-2.7,5.9l8.3,4.4c-0.4,1.5-0.6,3-0.6,4.5l-9.2,1.9
		c0.1,2.1,0.4,4.3,0.9,6.4L286,68c0.5,1.4,1.1,2.8,1.9,4.1l-6.7,6.6c1.2,1.8,2.6,3.4,4.2,4.9l7.5-5.7c1.2,0.9,2.4,1.8,3.8,2.4
		l-2.1,9.1c2,0.8,4.1,1.4,6.2,1.8l3.2-8.8c1.5,0.2,3,0.2,4.5,0l3.2,8.8c2.1-0.4,4.2-1,6.2-1.8l-2.1-9.1c1.3-0.7,2.6-1.5,3.8-2.4
		l7.5,5.7c1.6-1.5,3-3.1,4.2-4.9l-6.7-6.6c0.8-1.3,1.4-2.7,1.9-4.1l9.3,0.7c0.5-2.1,0.8-4.2,0.9-6.4l-9.2-1.9
		c-0.1-1.5-0.3-3-0.6-4.5l8.3-4.4c-0.7-2-1.6-4-2.7-5.9l-8.7,3.3c-0.9-1.2-1.8-2.4-2.9-3.4l4.5-8.2c-1.7-1.3-3.5-2.5-5.4-3.5
		l-5.6,7.5c-1.4-0.6-2.8-1-4.3-1.3L309.4,30.9z"/>
	<path class="st78" d="M362.3,67.5c6.3,1,10.6,6.9,9.6,13.2c-1,6.3-6.9,10.6-13.2,9.6c-6.3-1-10.6-6.9-9.6-13.2
		C350.1,70.8,356,66.5,362.3,67.5z M365.9,52.3c-0.8-0.2-1.6-0.3-2.4-0.4l-3,8c-1.1,0-2.3,0.1-3.4,0.3l-4.3-7.4
		c-0.8,0.2-1.5,0.5-2.3,0.8l1.1,8.5c-1,0.5-2,1.1-2.9,1.8l-7.2-4.6c-0.6,0.6-1.1,1.1-1.7,1.7l4.9,7c-0.6,0.9-1.2,1.9-1.7,2.9
		l-8.5-0.7c-0.3,0.8-0.5,1.5-0.7,2.3l7.6,3.9c-0.1,1.1-0.2,2.3-0.1,3.4l-7.8,3.3c0.1,0.8,0.3,1.6,0.5,2.4l8.5-0.1
		c0.4,1.1,0.9,2.1,1.5,3.1l-5.4,6.6c0.5,0.6,1,1.3,1.5,1.9l7.5-4c0.8,0.8,1.8,1.4,2.7,2l-1.7,8.4c0.7,0.3,1.5,0.7,2.2,0.9l4.8-7
		c1.1,0.3,2.2,0.5,3.3,0.5l2.4,8.2c0.8,0,1.6-0.1,2.4-0.2l1-8.5c1.1-0.3,2.2-0.6,3.2-1.1l5.9,6.1c0.7-0.4,1.4-0.8,2-1.3l-3.1-7.9
		c0.9-0.7,1.6-1.6,2.3-2.5l8.1,2.7c0.4-0.7,0.8-1.4,1.2-2.1l-6.4-5.6c0.4-1.1,0.7-2.1,0.9-3.3l8.4-1.4c0.1-0.8,0.1-1.6,0.1-2.4
		l-8.3-2c-0.1-1.1-0.4-2.2-0.7-3.3l6.8-5.1c-0.3-0.7-0.7-1.5-1-2.2l-8.3,2.1c-0.6-0.9-1.4-1.8-2.2-2.6l3.6-7.7
		c-0.6-0.5-1.3-1-1.9-1.4l-6.3,5.7c-1-0.5-2-1-3.1-1.3L365.9,52.3z"/>
	<path class="st78" d="M364.7,79c0,2.3-1.8,4.1-4.1,4.1c-2.3,0-4.1-1.8-4.1-4.1c0-2.3,1.8-4.1,4.1-4.1
		C362.9,74.8,364.7,76.7,364.7,79z"/>
</g>
</svg>
