<?xml version="1.0" encoding="utf-8"?>
<!-- Generator: Adobe Illustrator 24.0.0, SVG Export Plug-In . SVG Version: 6.00 Build 0)  -->
<svg version="1.1" xmlns="http://www.w3.org/2000/svg" xmlns:xlink="http://www.w3.org/1999/xlink" x="0px" y="0px"
	 viewBox="0 0 283.5 311.8" style="enable-background:new 0 0 283.5 311.8;" xml:space="preserve">
<style type="text/css">
	.st0{opacity:0.2;}
	.st1{fill:#1B2F35;}
	.st2{fill:#9E060B;}
	.st3{opacity:0.31;}
	.st4{fill:#632824;}
	.st5{fill:#1D282E;}
	.st6{fill:#2B434A;}
	.st7{fill:#152429;}
	.st8{fill:#E0A47C;}
	.st9{fill:#F2E6DC;}
	.st10{fill:#D8EAEF;}
	.st11{fill:#AA0E0E;}
	.st12{opacity:0.26;}
	.st13{fill:#1F363D;}
	.st14{fill:#FFFFFF;}
	.st15{opacity:0.25;}
	.st16{fill:#0D2528;}
	.st17{opacity:0.76;}
	.st18{fill:#334F57;}
	.st19{fill:#EAAE86;}
	.st20{fill:#FCC49A;}
	.st21{fill:#E2A479;}
	.st22{fill:#3F2615;}
	.st23{fill:#774A07;}
	.st24{fill:#6E6E6E;}
	.st25{opacity:0.34;}
	.st26{fill:#A3673A;}
	.st27{fill:#3F2919;}
	.st28{opacity:0.44;}
	.st29{fill:#052C35;}
	.st30{opacity:0.37;}
	.st31{opacity:0.29;}
	.st32{fill:#243F47;}
	.st33{opacity:0.22;}
	.st34{opacity:0.3;}
	.st35{fill:#E8AD85;}
	.st36{fill:#FFD2B3;}
	.st37{fill:#0E3C54;}
	.st38{fill:#F99920;}
	.st39{fill:#234354;}
	.st40{fill:#082633;}
	.st41{fill:#366377;}
	.st42{fill:#FFAF57;}
</style>
<g id="Layer_2">
</g>
<g id="Layer_1">
	<g>
		<g class="st0">
			<path class="st1" d="M33.1,301.2c0,4.6,48.6,8.4,108.6,8.4c60,0,108.6-3.7,108.6-8.4c0-4.6-48.6-8.4-108.6-8.4
				C81.7,292.8,33.1,296.6,33.1,301.2z"/>
		</g>
		<g>
			<path class="st2" d="M113.3,217.8c0.1-18.6,2.9-32.2,8.3-40.9c5.4-8.6,16.1-19.1,32.2-31.5c9.4-7.7,17-16,22.6-24.9
				c5.6-8.9,8.5-18.9,8.5-29.9c0-12.2-3.2-21.8-9.7-28.7c-6.5-6.9-15.7-10.4-27.6-10.4c-9.8,0-18.2,2.9-25,8.8
				c-6.8,5.9-10.3,14.4-10.5,25.7H55.5l-0.4-1.2c-0.4-25.5,8-45.1,25.2-58.6c17.2-13.6,39.6-20.3,67.3-20.3
				c29.8,0,53.1,7.5,70.1,22.6C234.6,43.5,243.1,64,243.1,90c0,16.9-5,32.5-14.9,46.9c-9.9,14.4-22.3,26.4-37.2,36.1
				c-8.1,6.2-13.4,12.5-16,18.8c-2.5,6.3-3.8,15-3.8,26H113.3z M171.7,300.3h-58.6v-49.8h58.6V300.3z"/>
		</g>
		<g class="st3">
			<path class="st4" d="M113.1,250.6v11.2c2.7-0.7,10.4-3.1,14.3-4.5c6.5-2.4,9.4-4.4,10.7-6.7H113.1z"/>
		</g>
		<g>
			<g>
				<g>
					<g>
						<path class="st5" d="M48.7,293.3l-0.6,0.5l4.7,5.7c0,0,1.3-1.1,2.2-1.8c1.3-1-11.8-14.9-15.2-16.2c0,0-1.2,1-1.2,1
							s3.5,4.2,4.8,5.8C45.1,290.2,47.2,292.3,48.7,293.3z"/>
					</g>
				</g>
				<g>
					<g>
						<path class="st6" d="M49.8,292.4c1.9,1.4,4.1,4.1,5.1,5.3c1.8-1.5,4-3.5,5.7-5.2c1.7-1.6-1.8-5.3-5.2-4.9
							c-4.7-0.4-10.7-6.8-13.4-7c-1.4-0.1-2.3,0.8-2.3,0.8s3.5,4.2,4.8,5.8C46.2,289.2,48.5,291.4,49.8,292.4z"/>
					</g>
				</g>
			</g>
			<g>
				<g>
					<g>
						<path class="st5" d="M95.3,299.4l0,0.8l7.4-0.1c0,0,0-1.7,0-2.9c0-1.6-19-0.2-22.2,1.6c0,0,0,1.5,0,1.5s5.5-0.1,7.6-0.1
							C90.6,300.2,93.6,299.8,95.3,299.4z"/>
					</g>
				</g>
				<g>
					<g>
						<path class="st6" d="M95.3,297.8c2.3-0.6,5.7-0.7,7.4-0.7c0.1-2.2,0-2.8,0-7.2c-0.2-2.3-6.1-3.6-8-0.7
							c-0.9,5.3-11.6,5.3-13.4,7.2c-1,1-0.9,2.3-0.9,2.3s5.5-0.1,7.6-0.1C90.6,298.7,93.7,298.3,95.3,297.8z"/>
					</g>
				</g>
			</g>
			<g>
				<path class="st7" d="M114.9,231.6c0,0-24.9,3.4-34.4,5c-4.7,0.8-16.8,2.7-11.5,15.3c6.2,14.5,24.6,38.9,24.6,38.9h9.9L84,251.7
					l42.4-5.7C126.4,246,140.5,228.9,114.9,231.6z"/>
			</g>
			<g>
				<path class="st1" d="M141.5,233.4c0,0-24.7,2.9-30,3c-0.2,0-2.1,5.7-2.4,5.8c-13.3,5.4-22.9,9.9-35.2,21
					c-12.4,11.3-20.2,23.9-20.2,23.9l6.4,7.6c0,0,17.6-19.6,30.7-27.4c17.3-10.5,39.5-12.6,45-16.7
					C143,245.1,141.5,233.4,141.5,233.4z"/>
			</g>
			<g>
				<g>
					<path class="st7" d="M101.8,176.1c1-0.5,1.1,0.9,3,2.2c5.1,3.4-0.3,22-3.7,34.6c-1.8,6.5-4.9,10.3-8.3,10.8
						c-2.9,0.4-7.4-2.4-6.4-8.1c1.5-9.2,4.2-16.7,6.8-25.9C94.7,184,97.5,178.3,101.8,176.1z"/>
				</g>
			</g>
			<g>
				<g>
					<path class="st8" d="M109.2,175.3c0.3,2.4,2.4,5.1,6.5,4.6c4.1-0.6,4.8-3.8,4.5-6.1c-0.5-3.4-2.2-15.7-2.2-15.7l-10.3,6.1
						C107.7,164.2,108.8,171.8,109.2,175.3z"/>
				</g>
			</g>
			<g>
				<g>
					<path class="st9" d="M119.5,169.1c-1.7,1.1-3.5,1.8-5.5,2.1c-1.8,0.3-3.6,0.1-5.3-0.3c-0.4-2.8-0.8-5.3-0.8-5.3l10.3-6.1
						C118.1,159.5,118.8,164.6,119.5,169.1z"/>
				</g>
			</g>
			<g>
				<g>
					<path class="st10" d="M99.3,180.1c0,0,7-7.2,9-8l0.2,1.5c0.4,3.2,1.8,6.4,4.3,6c2.6-0.4,8-4.5,7.5-7.7l-0.2-1.5
						c2.1,0.3,2.9,1,2.9,1l8.7,66.8c0,0-5.2,0.6-15-0.4c-8.2-0.8-10.8-4.4-10.8-4.4L99.3,180.1z"/>
				</g>
			</g>
			<g>
				<g>
					<path class="st11" d="M111.9,187.8l-2.4-5.9l3-2.4l3.4,2.8l-2.1,5.4c0,0,0.4,10.1,1.2,19.3c0.8,8.9,1.6,21.3,1.6,21.3l-4.1,6.7
						l-3-8c0,0,0.6-11.3,0.7-16.2C110.9,196.5,111.9,187.8,111.9,187.8z"/>
				</g>
			</g>
			<g>
				<g class="st12">
					<g>
						<polygon class="st13" points="105.8,175 108.6,172.2 112.5,179.7 119.9,170.6 123.4,172.5 117.6,187.7 112.7,180.5 
							108.2,188.6 						"/>
					</g>
				</g>
				<g>
					<g>
						<g>
							<polygon class="st14" points="105.9,173.8 108.6,171.1 112.6,179.5 108.3,187.6 							"/>
						</g>
					</g>
					<g>
						<g>
							<polygon class="st14" points="123,171.4 119.6,169.5 112.6,179.5 117.5,186.4 							"/>
						</g>
					</g>
				</g>
			</g>
			<g>
				<g>
					<path class="st13" d="M143,201.9c1.9,18.8,0.8,37.9,0.3,41.7c-3,3-18.6,7-24.8,7.3c0,0,0.1-18.2,0-35.8c0-4.2-0.4-8.6-0.3-11.3
						c0.4-13.6,3.6-32.9,3.6-32.9c1.2,0.1,2.5,0.3,3.6,0.6C129.7,172.9,140.1,174.1,143,201.9z"/>
				</g>
			</g>
			<g>
				<g>
					<g class="st15">
						<g>
							<path class="st16" d="M98.4,207.6c5.3,23.9,1.5,24.2,1.5,24.2c0,3.3,2.1,10.3,6.1,11.9c0,0,3.6-3.7,2.5-27.1
								c-0.2-3.8-1.2-13.9-1.2-15.9c-0.1-3.6-0.7-18-0.1-27.5c-1.1,0.4-1.2,0.6-2.2,1.2C101.4,176.5,93.1,183.5,98.4,207.6z"/>
						</g>
					</g>
					<g class="st17">
						<g>
							<path class="st16" d="M101.9,176.4l4.8-3.2c0,0-0.6,6.4-1.5,16c-0.8,8.2,1.4,26.9,1.4,26.9l-7.1-22.4l3.3-3.8l-3.6-2.2
								L101.9,176.4z"/>
						</g>
					</g>
					<g>
						<g>
							<path class="st13" d="M97.5,209.5c4.6,17.6,3,20.3,0.6,22.7c-0.9,0.9,2.1,9.1,6.5,11.2c0,0,3.6-12.9,2-27.3
								c-0.4-3.8-0.5-6.9-0.7-9c-1.4-15.2,1.3-34,1.3-34c-1.1,0.4-2.3,1-3.3,1.6C100.2,176.7,91.2,185.6,97.5,209.5z"/>
						</g>
					</g>
					<g>
						<g>
							<path class="st18" d="M101.8,175.7l5.5-3.4c0,0-0.6,6.4-1.5,16c-0.8,8.2,0.8,27.7,0.8,27.7l-6.5-23.2l3.3-3.8l-3.6-2.2
								L101.8,175.7z"/>
						</g>
					</g>
				</g>
				<g>
					<g>
						<g>
							<path class="st18" d="M103.8,220.1c0.1,0.6,0.6,1,1.2,0.9c0.6-0.1,1-0.6,0.9-1.2c-0.1-0.6-0.6-1-1.2-0.9
								C104.1,219,103.7,219.5,103.8,220.1z"/>
						</g>
					</g>
					<g>
						<g>
							<path class="st18" d="M104.3,231.3c0,0.6,0.3,1.1,0.8,1.1c0.5,0,0.9-0.4,0.9-1c0-0.6-0.3-1.1-0.8-1.1
								C104.7,230.3,104.3,230.8,104.3,231.3z"/>
						</g>
					</g>
				</g>
			</g>
			<g>
				<g>
					<g>
						<g>
							<g>
								<path class="st19" d="M94.7,155.1c1.7-0.2,2.8-1.8,2.6-3.5c-0.2-1.7-1.8-2.8-3.5-2.6l-2.4,0.3c-1.7,0.2-2.8,1.8-2.6,3.5
									c0.2,1.7,1.8,2.8,3.5,2.6L94.7,155.1z"/>
							</g>
						</g>
						<g>
							<g>
								<path class="st9" d="M94.4,153.3c0.7-0.1,1.1-0.7,1-1.4c-0.1-0.7-0.7-1.1-1.4-1l-2.4,0.3c-0.7,0.1-1.1,0.7-1,1.4
									c0.1,0.7,0.7,1.1,1.4,1L94.4,153.3z"/>
							</g>
						</g>
					</g>
					<g>
						<g>
							<g>
								<path class="st19" d="M126.8,150.6c1.7-0.2,2.8-1.8,2.6-3.5c-0.2-1.7-1.8-2.8-3.5-2.6l-2.4,0.3c-1.7,0.2-2.8,1.8-2.6,3.5
									c0.2,1.7,1.8,2.8,3.5,2.6L126.8,150.6z"/>
							</g>
						</g>
						<g>
							<g>
								<path class="st9" d="M126.5,148.8c0.7-0.1,1.1-0.7,1-1.4c-0.1-0.7-0.7-1.1-1.4-1l-2.4,0.3c-0.7,0.1-1.1,0.7-1,1.4
									c0.1,0.7,0.7,1.1,1.4,1L126.5,148.8z"/>
							</g>
						</g>
					</g>
				</g>
				<g>
					<g>
						<path class="st20" d="M105.3,123.4c-8.6,1.2-14.8,7.7-13.6,16.3l2.8,19.9c1.2,8.6,9.3,15.9,17.9,14.7
							c8.6-1.2,14.4-10.5,13.2-19.1l-2.8-19.9C121.7,126.7,113.9,122.2,105.3,123.4z"/>
					</g>
				</g>
				<g>
					<g>
						<path class="st21" d="M107.4,154.7c0,0,0.8,0.3,2.3,0.1c1.3-0.2,2.2-0.7,2.2-0.7s0.3,1.9-1.8,2.2
							C108.2,156.7,107.5,155.3,107.4,154.7z"/>
					</g>
				</g>
				<g>
					<g>
						<path class="st22" d="M112,140.3l4.8,1.8c0.3,0.1,0.7,0,0.8-0.4c0.1-0.3,0-0.7-0.4-0.8l-4.8-1.8c-0.3-0.1-0.7,0-0.8,0.4
							C111.5,139.8,111.7,140.2,112,140.3z"/>
					</g>
				</g>
				<g>
					<g>
						<path class="st22" d="M102.1,144.6c0.2-0.2,0.3-0.5,0.2-0.7c-0.1-0.3-0.5-0.5-0.8-0.4l-4.9,1.7c-0.3,0.1-0.5,0.5-0.4,0.8
							c0.1,0.3,0.5,0.5,0.8,0.4l4.9-1.7C102,144.7,102,144.7,102.1,144.6z"/>
					</g>
				</g>
				<g>
					<g>
						<path class="st23" d="M89.6,132.2c-1-7.4,4.7-12.1,4.7-12.1c2.3-2.2,5.5-3.6,8.6-4.4c-0.6,1.1-1.5,3.1-0.9,2.4
							c1.6-2,5.7-3.1,7.4-3.5c2.1-0.2,3.5-0.1,3.5,0c0,1.9-2.8,4-1.4,3.8c2-0.3,3.8-3,4.2-2.7c6.2,4.1,7,9.8,7.3,13
							c0.4,3.8,1.3,16,1.3,16s-1.3-7-1.7-9.7c-0.7-4.9-4.9-8.9-8.6-6.3c-2.6,1.8-4.6,2.5-8.7,2.6c-6.3,0.2-7.9,0.1-9.4,0.2
							c-3.4,0.1-4.3,3.4-3.9,6.3c0.3,1.9,1.2,10.7,1.2,10.7S90.3,137.3,89.6,132.2z"/>
					</g>
				</g>
			</g>
			<g>
				<g>
					<g>
						<g>
							<g>
								<path class="st19" d="M94.7,155.1c1.7-0.2,2.8-1.8,2.6-3.5c-0.2-1.7-1.8-2.8-3.5-2.6l-2.4,0.3c-1.7,0.2-2.8,1.8-2.6,3.5
									c0.2,1.7,1.8,2.8,3.5,2.6L94.7,155.1z"/>
							</g>
						</g>
						<g>
							<g>
								<path class="st9" d="M94.4,153.3c0.7-0.1,1.1-0.7,1-1.4c-0.1-0.7-0.7-1.1-1.4-1l-2.4,0.3c-0.7,0.1-1.1,0.7-1,1.4
									c0.1,0.7,0.7,1.1,1.4,1L94.4,153.3z"/>
							</g>
						</g>
					</g>
					<g>
						<g>
							<g>
								<path class="st19" d="M126.8,150.6c1.7-0.2,2.8-1.8,2.6-3.5c-0.2-1.7-1.8-2.8-3.5-2.6l-2.4,0.3c-1.7,0.2-2.8,1.8-2.6,3.5
									c0.2,1.7,1.8,2.8,3.5,2.6L126.8,150.6z"/>
							</g>
						</g>
						<g>
							<g>
								<path class="st9" d="M126.5,148.8c0.7-0.1,1.1-0.7,1-1.4c-0.1-0.7-0.7-1.1-1.4-1l-2.4,0.3c-0.7,0.1-1.1,0.7-1,1.4
									c0.1,0.7,0.7,1.1,1.4,1L126.5,148.8z"/>
							</g>
						</g>
					</g>
				</g>
				<g>
					<g>
						<path class="st20" d="M105.3,123.4c-8.6,1.2-14.8,7.7-13.6,16.3l2.8,19.9c1.2,8.6,9.3,15.9,17.9,14.7
							c8.6-1.2,14.4-10.5,13.2-19.1l-2.8-19.9C121.7,126.7,113.9,122.2,105.3,123.4z"/>
					</g>
				</g>
				<g>
					<g>
						<path class="st21" d="M107.4,154.7c0,0,0.8,0.3,2.3,0.1c1.3-0.2,2.2-0.7,2.2-0.7s0.3,1.9-1.8,2.2
							C108.2,156.7,107.5,155.3,107.4,154.7z"/>
					</g>
				</g>
				<g>
					<g>
						<path class="st22" d="M112,140.3l4.8,1.8c0.3,0.1,0.7,0,0.8-0.4c0.1-0.3,0-0.7-0.4-0.8l-4.8-1.8c-0.3-0.1-0.7,0-0.8,0.4
							C111.5,139.8,111.7,140.2,112,140.3z"/>
					</g>
				</g>
				<g>
					<g>
						<path class="st22" d="M102.1,144.6c0.2-0.2,0.3-0.5,0.2-0.7c-0.1-0.3-0.5-0.5-0.8-0.4l-4.9,1.7c-0.3,0.1-0.5,0.5-0.4,0.8
							c0.1,0.3,0.5,0.5,0.8,0.4l4.9-1.7C102,144.7,102,144.7,102.1,144.6z"/>
					</g>
				</g>
				<g>
					<g>
						<path class="st23" d="M89.6,132.2c-1-7.4,4.7-12.1,4.7-12.1c2.3-2.2,5.5-3.6,8.6-4.4c-0.6,1.1-1.5,3.1-0.9,2.4
							c1.6-2,5.7-3.1,7.4-3.5c2.1-0.2,3.5-0.1,3.5,0c0,1.9-2.8,4-1.4,3.8c2-0.3,3.8-3,4.2-2.7c6.2,4.1,7,9.8,7.3,13
							c0.4,3.8,1.3,16,1.3,16s-1.3-7-1.7-9.7c-0.7-4.9-4.9-8.9-8.6-6.3c-2.6,1.8-4.6,2.5-8.7,2.6c-6.3,0.2-7.9,0.1-9.4,0.2
							c-3.4,0.1-4.3,3.4-3.9,6.3c0.3,1.9,1.2,10.7,1.2,10.7S90.3,137.3,89.6,132.2z"/>
					</g>
				</g>
			</g>
			<g>
				<g>
					<g>
						<g>
							<g>
								<path class="st19" d="M94.7,155.1c1.7-0.2,2.8-1.8,2.6-3.5c-0.2-1.7-1.8-2.8-3.5-2.6l-2.4,0.3c-1.7,0.2-2.8,1.8-2.6,3.5
									c0.2,1.7,1.8,2.8,3.5,2.6L94.7,155.1z"/>
							</g>
						</g>
						<g>
							<g>
								<path class="st9" d="M94.4,153.3c0.7-0.1,1.1-0.7,1-1.4c-0.1-0.7-0.7-1.1-1.4-1l-2.4,0.3c-0.7,0.1-1.1,0.7-1,1.4
									c0.1,0.7,0.7,1.1,1.4,1L94.4,153.3z"/>
							</g>
						</g>
					</g>
					<g>
						<g>
							<g>
								<path class="st19" d="M126.8,150.6c1.7-0.2,2.8-1.8,2.6-3.5c-0.2-1.7-1.8-2.8-3.5-2.6l-2.4,0.3c-1.7,0.2-2.8,1.8-2.6,3.5
									c0.2,1.7,1.8,2.8,3.5,2.6L126.8,150.6z"/>
							</g>
						</g>
						<g>
							<g>
								<path class="st9" d="M126.5,148.8c0.7-0.1,1.1-0.7,1-1.4c-0.1-0.7-0.7-1.1-1.4-1l-2.4,0.3c-0.7,0.1-1.1,0.7-1,1.4
									c0.1,0.7,0.7,1.1,1.4,1L126.5,148.8z"/>
							</g>
						</g>
					</g>
				</g>
				<g>
					<g>
						<path class="st20" d="M105.3,123.4c-8.6,1.2-14.8,7.7-13.6,16.3l2.8,19.9c1.2,8.6,9.3,15.9,17.9,14.7
							c8.6-1.2,14.4-10.5,13.2-19.1l-2.8-19.9C121.7,126.7,113.9,122.2,105.3,123.4z"/>
					</g>
				</g>
				<g>
					<g>
						<path class="st21" d="M107.4,154.7c0,0,0.8,0.3,2.3,0.1c1.3-0.2,2.2-0.7,2.2-0.7s0.3,1.9-1.8,2.2
							C108.2,156.7,107.5,155.3,107.4,154.7z"/>
					</g>
				</g>
				<g>
					<g>
						<path class="st22" d="M112,140.3l4.8,1.8c0.3,0.1,0.7,0,0.8-0.4c0.1-0.3,0-0.7-0.4-0.8l-4.8-1.8c-0.3-0.1-0.7,0-0.8,0.4
							C111.5,139.8,111.7,140.2,112,140.3z"/>
					</g>
				</g>
				<g>
					<g>
						<path class="st22" d="M102.1,144.6c0.2-0.2,0.3-0.5,0.2-0.7c-0.1-0.3-0.5-0.5-0.8-0.4l-4.9,1.7c-0.3,0.1-0.5,0.5-0.4,0.8
							c0.1,0.3,0.5,0.5,0.8,0.4l4.9-1.7C102,144.7,102,144.7,102.1,144.6z"/>
					</g>
				</g>
				<g>
					<g>
						<path class="st24" d="M89.6,132.2c-1-7.4,4.7-12.1,4.7-12.1c2.3-2.2,5.5-3.6,8.6-4.4c-0.6,1.1-1.5,3.1-0.9,2.4
							c1.6-2,5.7-3.1,7.4-3.5c2.1-0.2,3.5-0.1,3.5,0c0,1.9-2.8,4-1.4,3.8c2-0.3,3.8-3,4.2-2.7c6.2,4.1,7,9.8,7.3,13
							c0.4,3.8,1.3,16,1.3,16s-1.3-7-1.7-9.7c-0.7-4.9-4.9-8.9-8.6-6.3c-2.6,1.8-4.6,2.5-8.7,2.6c-6.3,0.2-7.9,0.1-9.4,0.2
							c-3.4,0.1-4.3,3.4-3.9,6.3c0.3,1.9,1.2,10.7,1.2,10.7S90.3,137.3,89.6,132.2z"/>
					</g>
				</g>
			</g>
			<g class="st17">
				<g>
					<path class="st16" d="M127,172.2l-4.9-1.3c0,0-3.1,9.5-3.3,21c-0.2,10.9,0.2,22.5,0.2,22.5l7.2-23l-4.4-4.1l5-1.5L127,172.2z"
						/>
				</g>
			</g>
			<g>
				<g>
					<path class="st18" d="M127.1,171.9l-5.7-1.5c0,0-3.1,9.5-3.3,21c-0.2,10.9,1,23.1,1,23.1l6.5-23.5l-4.4-4.1l5-1.5L127.1,171.9z
						"/>
				</g>
			</g>
			<g class="st25">
				<path class="st26" d="M106.7,162.7c-0.1,0-0.2,0-0.3-0.1c-0.2-0.2-0.2-0.5-0.1-0.7c0,0,3.3-3.9,8.5-0.9c0.2,0.1,0.3,0.4,0.2,0.6
					c-0.1,0.2-0.4,0.3-0.6,0.2c-4.5-2.6-7.3,0.5-7.4,0.7C107,162.6,106.9,162.7,106.7,162.7z"/>
			</g>
			<g>
				<path class="st27" d="M102.3,149.5c0,0.9-0.7,1.7-1.7,1.7c-0.9,0-1.7-0.7-1.7-1.7c0-0.9,0.7-1.7,1.7-1.7
					C101.5,147.9,102.3,148.6,102.3,149.5z"/>
			</g>
			<g>
				<path class="st27" d="M118.1,147.3c0,0.9-0.7,1.7-1.7,1.7c-0.9,0-1.7-0.7-1.7-1.7c0-0.9,0.7-1.7,1.7-1.7
					C117.3,145.7,118.1,146.4,118.1,147.3z"/>
			</g>
			<g>
				<g class="st28">
					<g>
						<g>
							<path class="st14" d="M112.2,151.2c0.2-0.8,1.9-1.4,2.9-1.6c2-0.4,6.1-1.2,8.3-1.2c2.2,0,2.1,1.1,2.2,2.6
								c0.1,1.3,0.1,2.7-2.4,3.4c-2.5,0.7-5.3,1-7.4,1c-2.1,0.1-2.8-0.6-3.3-1.5C112.1,152.9,112,151.8,112.2,151.2z M95,152.2
								c2.1-0.6,6.3-0.9,8.3-1.1c1.1-0.1,2.8,0,3.2,0.8c0.4,0.6,0.6,1.7,0.4,2.6c-0.2,1-0.7,1.8-2.7,2.3c-2,0.5-4.8,1-7.4,1
								c-2.7,0-3-1.3-3.3-2.6C93.3,153.8,92.9,152.8,95,152.2z"/>
						</g>
					</g>
				</g>
				<g>
					<path class="st29" d="M127.3,147.7c-0.1-0.1-0.3-0.1-0.5-0.1c-0.4,0.1-1,0.1-1.8,0.1c-0.3,0-0.6,0-1,0c-1.2,0-3,0.2-4.8,0.5
						c-1.7,0.2-3.2,0.5-4.4,0.8c-1.4,0.3-2.2,0.7-3,1c-0.8,0.4-1.5,0.7-2.7,0.8c-1.2,0.2-2,0.1-2.9-0.1c-0.8-0.1-1.7-0.2-3.1-0.2
						c-1.2,0.1-2.8,0.2-4.4,0.4c-1.8,0.2-3.5,0.6-4.7,0.9c-0.4,0.1-0.7,0.2-1,0.3c-0.8,0.2-1.3,0.3-1.7,0.4c-0.2,0-0.4,0.1-0.5,0.2
						c-0.2,0.2-0.1,0.5-0.1,0.7l0.1,0.9c0.1,0.5,0.4,0.6,0.8,0.7c0.3,0.1,0.7,0.5,1,1.1c0,0.1,0.1,0.1,0.1,0.2
						c0.3,0.8,0.9,2.3,4.7,2c1.1-0.1,2.3-0.2,3.3-0.3c1.8-0.2,3.4-0.6,4.7-1c1.5-0.5,1.9-1.7,2.3-2.7c0.3-0.9,0.7-1.7,1.6-1.8
						c0.9-0.1,1.4,0.6,2,1.3c0.7,0.9,1.4,1.9,3,2c1.4,0.1,3.1,0,4.9-0.3c1-0.1,2.1-0.3,3.3-0.6c3.7-0.8,3.9-2.4,4-3.3
						c0-0.1,0-0.2,0-0.2c0.1-0.7,0.3-1.2,0.6-1.4c0.3-0.2,0.6-0.4,0.5-0.9l-0.1-0.8c0,0,0-0.1,0-0.1
						C127.6,148.2,127.6,147.9,127.3,147.7z M125.4,150.5l0,0.4c0.1,1.4,0,2.6-2.3,3.2c-1.1,0.3-2.3,0.5-3.6,0.7
						c-1.3,0.2-2.6,0.3-3.8,0.3c-2.1,0.1-2.7-0.7-3.1-1.4c-0.4-0.9-0.5-1.9-0.3-2.5c0.2-0.7,1.6-1.3,2.8-1.5c1.5-0.3,3.6-0.7,5.5-1
						c1.2-0.2,2.1-0.2,2.8-0.3C125.2,148.4,125.3,149.2,125.4,150.5z M106.4,152c0.3,0.5,0.6,1.5,0.4,2.5c-0.2,0.8-0.6,1.7-2.6,2.2
						c-1.1,0.3-2.4,0.5-3.7,0.7c-1.3,0.2-2.5,0.3-3.6,0.3c-2.4,0-2.8-1.1-3.1-2.5l-0.1-0.3c-0.3-1.3-0.4-2.1,1.4-2.5
						c0.7-0.2,1.6-0.4,2.7-0.5c1.9-0.3,4.1-0.4,5.6-0.5C104.5,151.2,106,151.4,106.4,152z"/>
				</g>
			</g>
			<g class="st25">
				<path class="st26" d="M109.1,163.2c-0.1,0-0.2,0-0.3-0.1c-0.2-0.2-0.2-0.5,0-0.6c0,0,0.9-1,2.8-0.4c0.2,0.1,0.4,0.3,0.3,0.6
					c-0.1,0.2-0.3,0.4-0.6,0.3c-1.3-0.4-1.9,0.1-1.9,0.1C109.4,163.2,109.2,163.2,109.1,163.2z"/>
			</g>
			<g class="st30">
				<path class="st21" d="M122.7,167.1c0,0,0.3-1.3-1.3-0.9c-1.6,0.4-4.3,3.2-4.3,3.2s-2.4-4.7-5.4-8.5c-1.1-1.3-1.4-1.7-2.1-1.8
					c-0.4,0-1.6,0.3-0.8,1.5c2.2,3.2,3.1,5.7,3.1,5.7s-0.6-0.6-1.6,0.1c-0.8,0.6-0.6,1.7-0.6,1.7s-0.7-0.3-1.2,0.1
					c-0.8,0.6-0.6,1.3-0.6,1.3s-1.2,0.4-1.1,1.4c0.1,0.5,0.6,1.7,1.3,3.1c1.4,0.3,2.8,0.3,4.3,0.1c2.2-0.3,4.2-1.2,6-2.4
					C119.9,169.3,122.7,167.1,122.7,167.1z"/>
			</g>
			<g class="st31">
				<g>
					<path class="st32" d="M135.2,180.5c1.5,1.4,1.7,6.1,1.6,8.3c-0.3,8.2-3.3,17.4-7.8,23.8c-6.4,9.1-15.6,4-12.8-4.7
						c1.7-5.2,5.4-6.8,9.3-19.5c0.8-2.6,2.4-5.1,4.2-6.5C130.7,181.2,134.2,179.6,135.2,180.5z"/>
				</g>
			</g>
			<g>
				<g>
					<path class="st32" d="M134.4,177.6c1.5,1.4,2.3,3.1,2.2,5.3c-0.3,8.2-4.1,18.7-10.2,28.9c-5.1,8.5-13.3,3.7-10.5-5
						c1.7-5.2,5.9-10.1,9.8-22.8c0.8-2.6,2.4-5.1,4.2-6.5C131,176.7,133.5,176.7,134.4,177.6z"/>
				</g>
			</g>
			<g class="st33">
				<path class="st7" d="M124.2,188.9c-3.4,9.2-6.7,13.4-8.2,17.9c0.4,2.4,0.7,4.5,1.1,5.8c2,6.8,6.1,1.1,7.6-0.6
					c1.3-1.4,1.7-7.1,1.2-11.2C125.3,196.6,124.7,192.4,124.2,188.9z"/>
			</g>
			<g class="st34">
				<path class="st16" d="M130.2,220.6c0,0,1.4-0.7,1-1.8c-0.3-0.9-1.7-0.5-1.7-0.5s1.1-0.6,0.8-1.5c-0.2-0.9-1.1-0.9-1.6-0.8
					c-6.4,1.2-8.8,0.7-9,0.8c-0.1,0,1.5-2.6,2.1-3.2c0.5-0.6,0.6-1.3,0-1.7c-0.6-0.5-1.6,0.4-1.6,0.4s-3.3,2.4-5,4.2l0-0.2l-1.4,0.2
					c0-0.2,0-0.3,0-0.4l-13.7-1c0.2,4.5,0.2,8.5,0.2,8.5l0.1,3.4c6.1-0.5,14.2-1.8,14.2-1.8s0-0.1,0-0.3l1.5-0.1l-0.1-0.6
					c1.7,0.5,4.2,1,5.4,1.1c2.5,0.2,5.3,0,7.6-1c1.6-0.7,1.1-1.6,1.1-1.6s1.1-0.5,0.9-1.3C130.8,220.6,130.2,220.6,130.2,220.6z"/>
			</g>
			<g>
				<g>
					<path class="st35" d="M113.6,218.8c-0.1-1.1,0.1-1.9,1.2-3.3c1.4-1.8,5.4-4.7,5.4-4.7s1-0.9,1.6-0.4c0.6,0.5,0.5,1.1,0,1.7
						c-0.5,0.6-2.1,3.3-2.1,3.2c0.2-0.1,2.6,0.4,9-0.8c0.5-0.1,1.3-0.1,1.6,0.8c0.2,0.9-0.8,1.5-0.8,1.5s1.3-0.4,1.7,0.5
						c0.4,1.1-1,1.8-1,1.8s0.5,0,0.7,0.7c0.2,0.8-0.9,1.3-0.9,1.3s0.5,0.9-1.1,1.6c-2.3,1.1-5.1,1.2-7.6,1c-1.7-0.1-6.1-1.1-6.9-1.7
						C113.3,221.1,113.7,219.8,113.6,218.8z"/>
				</g>
			</g>
			<g>
				<polygon class="st14" points="113.4,214.9 115.2,214.7 116,223.1 113.2,223.4 				"/>
			</g>
			<g>
				<path class="st32" d="M113.8,214.5L87,212.6c0,0-1.6,4.4-0.5,7.8c1.3,3.8,5.6,5.2,10.4,5.2c5.8,0,17.6-2,17.6-2
					S113.7,215.1,113.8,214.5z"/>
			</g>
			<g>
				<path class="st36" d="M119.9,183.7c0,0-1.7-7.3-1.3-9.1c0.7-3.4,4.9-6.8,4.9-6.8s0.3-1.3-1.3-0.9c-1.6,0.4-4.3,3.2-4.3,3.2
					s-2.4-4.7-5.4-8.5c-1.1-1.3-1.4-1.7-2.1-1.8c-0.4,0-1.6,0.3-0.8,1.5c2.2,3.2,3.1,5.7,3.1,5.7s-0.6-0.6-1.6,0.1
					c-0.8,0.6-0.6,1.7-0.6,1.7s-0.7-0.3-1.2,0.1c-0.8,0.6-0.6,1.3-0.6,1.3s-1.2,0.4-1.1,1.4c0.1,0.7,1.3,3.4,2.6,5.3
					c1.3,1.9,3.3,2.4,3.3,2.4l1.2,5.1L119.9,183.7z"/>
			</g>
			<g>
				<path class="st10" d="M120.2,182.1c0.1-0.3-0.6-3.2-0.6-3.2l-7.6,1.8l0.5,3.6L120.2,182.1z"/>
			</g>
			<g>
				<path class="st32" d="M126.2,208.9l-5.7-28.7l-8.9,2.5c0,0,1.8,22.6,3.6,28.8c2,6.8,6.5,5,9,2.9
					C126.2,212.7,126.2,208.9,126.2,208.9z"/>
			</g>
		</g>
		<g>
			<g>
				<g>
					<g>
						<g>
							<path class="st37" d="M164,266.8h1.5v-1.1c0-1.3,1-2.3,2.3-2.3H178c1.3,0,2.3,1,2.3,2.3v1.1h1.5v-1.1c0-2.1-1.7-3.8-3.8-3.8
								h-10.2c-2.1,0-3.8,1.7-3.8,3.8V266.8z"/>
						</g>
					</g>
				</g>
				<g>
					<g>
						<g>
							<path class="st38" d="M179.2,268.5c0,0.3,0.2,0.5,0.5,0.5h2.6c0.3,0,0.5-0.2,0.5-0.5v-1.7c0-0.3-0.2-0.5-0.5-0.5h-2.6
								c-0.3,0-0.5,0.2-0.5,0.5V268.5z"/>
						</g>
					</g>
					<g>
						<g>
							<path class="st38" d="M162.9,268.5c0,0.3,0.2,0.5,0.5,0.5h2.6c0.3,0,0.5-0.2,0.5-0.5v-1.7c0-0.3-0.2-0.5-0.5-0.5h-2.6
								c-0.3,0-0.5,0.2-0.5,0.5V268.5z"/>
						</g>
					</g>
				</g>
			</g>
			<g>
				<g>
					<path class="st39" d="M150.2,297.3c0,1.7,1.4,3.1,3.1,3.1h39c1.7,0,3.1-1.4,3.1-3.1v-27.5c0-0.8-0.7-1.5-1.5-1.5h-42
						c-0.8,0-1.5,0.7-1.5,1.5V297.3z"/>
				</g>
			</g>
			<g>
				<g>
					<path class="st40" d="M151.8,269.8h42c0.8,0,1.5,0.7,1.5,1.5v9.2c0,3.4-2.7,6.1-6.1,6.1h-14.2v1.6c0,1.3-1,2.3-2.3,2.3
						c-1.3,0-2.3-1-2.3-2.3v-1.6h-14.1c-3.4,0-6.1-2.7-6.1-6.1v-9.2C150.3,270.5,151,269.8,151.8,269.8z"/>
				</g>
			</g>
			<g>
				<g>
					<path class="st41" d="M150.3,278.9c0,3.4,2.7,6.1,6.1,6.1h32.8c3.4,0,6.1-2.7,6.1-6.1v-9.2c0-0.8-0.7-1.5-1.5-1.5h-42
						c-0.8,0-1.5,0.7-1.5,1.5V278.9z"/>
				</g>
			</g>
			<g>
				<g>
					<path class="st38" d="M170.5,286.6c0,1.3,1,2.3,2.3,2.3c1.3,0,2.3-1,2.3-2.3V283h-4.6V286.6z"/>
				</g>
			</g>
			<g>
				<g>
					<path class="st42" d="M171,286.5c0,1,0.8,1.8,1.8,1.8c1,0,1.8-0.8,1.8-1.8v-2.8H171V286.5z"/>
				</g>
			</g>
			<g>
				<g>
					<rect x="170.9" y="285.1" class="st38" width="3.9" height="0.6"/>
				</g>
			</g>
		</g>
	</g>
</g>
</svg>
